<svg width="26" height="26" viewBox="0 0 26 26" fill="none" xmlns="http://www.w3.org/2000/svg">
<path d="M23 6.75241H7.30435L9.23188 15.508L23 13.4234V6.75241Z" fill="#1B1B1B"/>
<path d="M4 3H6.47826L7.30435 6.75241M22.587 18.0096H9.78261L9.23188 15.508M7.30435 6.75241H23V13.4234L9.23188 15.508M7.30435 6.75241L9.23188 15.508" stroke="#1B1B1B" stroke-linecap="round"/>
<path d="M12.2606 23.5131C13.2255 23.5131 13.9997 22.7248 13.9997 21.7623C13.9997 20.7998 13.2255 20.0115 12.2606 20.0115C11.2957 20.0115 10.5215 20.7998 10.5215 21.7623C10.5215 22.7248 11.2957 23.5131 12.2606 23.5131Z" fill="#1B1B1B" stroke="#1B1B1B"/>
<path d="M20.5223 23.5131C21.4872 23.5131 22.2615 22.7248 22.2615 21.7623C22.2615 20.7998 21.4872 20.0115 20.5223 20.0115C19.5574 20.0115 18.7832 20.7998 18.7832 21.7623C18.7832 22.7248 19.5574 23.5131 20.5223 23.5131Z" fill="#1B1B1B" stroke="#1B1B1B"/>
</svg>
