<svg width="26" height="26" viewBox="0 0 26 26" fill="none" xmlns="http://www.w3.org/2000/svg">
<g clip-path="url(#clip0_2083_8649)">
<path fill-rule="evenodd" clip-rule="evenodd" d="M2.30831 2.1214L2.18364 2.24601V3.41632V4.58657H1.27197C0.300117 4.58657 0.150973 4.61557 0.0564181 4.82306C0.0157931 4.91228 5.09478e-05 7.50345 5.09478e-05 14.113C5.09478e-05 23.8959 -0.00944514 23.5058 0.230852 23.598C0.338305 23.6392 25.6618 23.6392 25.7692 23.598C26.0095 23.5058 26 23.8959 26 14.113C26 7.50345 25.9843 4.91228 25.9437 4.82306C25.8491 4.61557 25.7 4.58657 24.7281 4.58657H23.8165V3.41632V2.24601L23.6918 2.1214C23.5349 1.96448 23.4074 1.96286 22.0335 2.10007C20.2723 2.27602 18.9201 2.52094 17.4434 2.93146C16.1524 3.29038 15.2448 3.61137 13.6747 4.26431L13.0036 4.54341L12.0497 4.15077C9.11894 2.94456 6.75929 2.35697 3.71028 2.07417C2.55531 1.96702 2.45939 1.97027 2.30831 2.1214ZM4.82427 3.06552C7.0392 3.34725 9.29292 3.95572 11.5528 4.88197L12.5176 5.27745L12.5305 13.9155L12.5433 22.5536L11.7434 22.2244C9.279 21.2104 6.85095 20.5971 4.23541 20.3282C3.69474 20.2727 3.20613 20.2272 3.14966 20.2272C3.04693 20.2272 3.04693 20.2259 3.04693 11.5615V2.89581L3.54204 2.93059C3.81433 2.94974 4.39136 3.01042 4.82427 3.06552ZM22.9532 11.5614V20.212L22.2803 20.2729C19.4562 20.5287 16.8025 21.1739 14.2567 22.2237L13.4568 22.5536L13.4696 13.9155L13.4825 5.27745L14.4473 4.88197C16.7222 3.94957 18.9762 3.34223 21.1766 3.06882C22.2621 2.93395 22.316 2.92851 22.6612 2.91891L22.9532 2.91079V11.5614ZM2.18364 13.0958C2.18364 18.2101 2.20086 20.7738 2.23559 20.8388C2.32405 21.004 2.44994 21.0351 3.35903 21.1161C5.17258 21.2777 6.5488 21.5031 7.97271 21.8717C8.66191 22.0502 10.0137 22.4748 10.4864 22.6613L10.7403 22.7615L5.80181 22.7639L0.863332 22.7663V14.1081V5.44985H1.52349H2.18364V13.0958ZM25.1368 14.1081V22.7663H20.2025C17.4887 22.7663 15.2778 22.7573 15.2894 22.7465C15.3427 22.6965 16.8579 22.1987 17.5196 22.0137C19.2256 21.5367 20.6223 21.2902 22.6203 21.1134C23.5627 21.0299 23.6769 21.0026 23.7645 20.8388C23.7992 20.7738 23.8165 18.2101 23.8165 13.0958V5.44985H24.4766H25.1368V14.1081Z" fill="#BA8258"/>
<path d="M13 23.5C13 23.5 9.5 20.5 2.5 20.5V2.5C10.5 2.5 13 5.5 13 5.5C13 5.5 15.5 2.5 23.5 2.5V20.5C16.5 20.5 13 23.5 13 23.5Z" fill="#565252"/>
<path d="M13 23.5H25.5V5.5H24.5M13 23.5H0.5V5.5H1.5M13 23.5C13 23.5 9.5 20.5 2.5 20.5V2.5C10.5 2.5 13 5.5 13 5.5M13 23.5C13 23.5 16.5 20.5 23.5 20.5V2.5C15.5 2.5 13 5.5 13 5.5M13 23.5V5.5" stroke="#1B1B1B" stroke-linecap="square"/>
</g>
<defs>
<clipPath id="clip0_2083_8649">
<rect width="26" height="26" fill="white"/>
</clipPath>
</defs>
</svg>
