<svg width="26" height="26" viewBox="0 0 26 26" fill="none" xmlns="http://www.w3.org/2000/svg">
<g clip-path="url(#clip0_2782_1261)">
<path fill-rule="evenodd" clip-rule="evenodd" d="M2.30831 2.30499L2.18364 2.42961V3.59991V4.77016H1.27197C0.300117 4.77016 0.150973 4.79916 0.0564181 5.00665C0.0157931 5.09588 5.09478e-05 7.68704 5.09478e-05 14.2966C5.09478e-05 24.0795 -0.00944514 23.6894 0.230852 23.7816C0.338305 23.8228 25.6618 23.8228 25.7692 23.7816C26.0095 23.6894 26 24.0795 26 14.2966C26 7.68704 25.9843 5.09588 25.9437 5.00665C25.8491 4.79916 25.7 4.77016 24.7281 4.77016H23.8165V3.59991V2.42961L23.6918 2.30499C23.5349 2.14807 23.4074 2.14645 22.0335 2.28366C20.2723 2.45962 18.9201 2.70454 17.4434 3.11505C16.1524 3.47397 15.2448 3.79496 13.6747 4.44791L13.0036 4.727L12.0497 4.33436C9.11894 3.12815 6.75929 2.54056 3.71028 2.25776C2.55531 2.15061 2.45939 2.15386 2.30831 2.30499ZM4.82427 3.24911C7.0392 3.53085 9.29292 4.13931 11.5528 5.06556L12.5176 5.46104L12.5305 14.0991L12.5433 22.7372L11.7434 22.408C9.27901 21.394 6.85095 20.7807 4.23541 20.5118C3.69474 20.4563 3.20613 20.4108 3.14966 20.4108C3.04693 20.4108 3.04693 20.4095 3.04693 11.7451V3.0794L3.54204 3.11419C3.81433 3.13333 4.39136 3.19402 4.82427 3.24911ZM22.9532 11.745V20.3956L22.2803 20.4565C19.4562 20.7123 16.8025 21.3575 14.2567 22.4073L13.4568 22.7372L13.4696 14.0991L13.4825 5.46104L14.4473 5.06556C16.7222 4.13316 18.9762 3.52582 21.1766 3.25241C22.2621 3.11754 22.316 3.11211 22.6612 3.10251L22.9532 3.09438V11.745ZM2.18364 13.2794C2.18364 18.3937 2.20086 20.9574 2.23559 21.0223C2.32405 21.1876 2.44994 21.2187 3.35903 21.2997C5.17258 21.4613 6.5488 21.6867 7.97271 22.0553C8.66191 22.2338 10.0137 22.6584 10.4864 22.8449L10.7403 22.9451L5.80181 22.9475L0.863332 22.9499V14.2916V5.63345H1.52349H2.18364V13.2794ZM25.1368 14.2916V22.9499H20.2025C17.4887 22.9499 15.2778 22.9409 15.2894 22.93C15.3427 22.8801 16.8579 22.3823 17.5196 22.1973C19.2256 21.7203 20.6223 21.4738 22.6203 21.297C23.5627 21.2135 23.6769 21.1862 23.7645 21.0223C23.7992 20.9574 23.8165 18.3937 23.8165 13.2794V5.63345H24.4766H25.1368V14.2916Z" fill="#BBBBBB"/>
</g>
<defs>
<clipPath id="clip0_2782_1261">
<rect width="26" height="26" fill="white"/>
</clipPath>
</defs>
</svg>
