<svg width="50" height="50" viewBox="0 0 50 50" fill="none" xmlns="http://www.w3.org/2000/svg">
<ellipse cx="25" cy="24.9839" rx="25" ry="24.9839" fill="#1B1B1B"/>
<path d="M34 18.75H18.3043L20.2319 27.5L34 25.4167V18.75Z" fill="white"/>
<path d="M15 15H17.4783L18.3043 18.75M33.587 30H20.7826L20.2319 27.5M18.3043 18.75H34V25.4167L20.2319 27.5M18.3043 18.75L20.2319 27.5" stroke="white" stroke-linecap="round"/>
<path d="M23.2611 35.5C24.2257 35.5 25.0002 34.7124 25.0002 33.75C25.0002 32.7876 24.2257 32 23.2611 32C22.2965 32 21.522 32.7876 21.522 33.75C21.522 34.7124 22.2965 35.5 23.2611 35.5Z" fill="white" stroke="white"/>
<path d="M31.5214 35.5C32.486 35.5 33.2605 34.7124 33.2605 33.75C33.2605 32.7876 32.486 32 31.5214 32C30.5568 32 29.7822 32.7876 29.7822 33.75C29.7822 34.7124 30.5568 35.5 31.5214 35.5Z" fill="white" stroke="white"/>
</svg>
