<svg width="22" height="23" viewBox="0 0 22 23" fill="none" xmlns="http://www.w3.org/2000/svg">
<mask id="path-1-inside-1_4603_2072" fill="white">
<path fill-rule="evenodd" clip-rule="evenodd" d="M8 5.5C8 4.94772 8.44772 4.5 9 4.5H13C13.5523 4.5 14 4.94772 14 5.5V6.5H18C19.1046 6.5 20 7.39543 20 8.5V16.5C20 17.6046 19.1046 18.5 18 18.5H4C2.89543 18.5 2 17.6046 2 16.5V8.5C2 7.39543 2.89543 6.5 4 6.5H8V5.5ZM13 5.5H9V6.5H13V5.5Z"/>
</mask>
<path d="M14 6.5H13V7.5H14V6.5ZM8 6.5V7.5H9V6.5H8ZM9 5.5V4.5H8V5.5H9ZM13 5.5H14V4.5H13V5.5ZM9 6.5H8V7.5H9V6.5ZM13 6.5V7.5H14V6.5H13ZM9 3.5C7.89543 3.5 7 4.39543 7 5.5H9V5.5V3.5ZM13 3.5H9V5.5H13V3.5ZM15 5.5C15 4.39543 14.1046 3.5 13 3.5V5.5H15ZM15 6.5V5.5H13V6.5H15ZM18 5.5H14V7.5H18V5.5ZM21 8.5C21 6.84315 19.6569 5.5 18 5.5V7.5C18.5523 7.5 19 7.94772 19 8.5H21ZM21 16.5V8.5H19V16.5H21ZM18 19.5C19.6569 19.5 21 18.1569 21 16.5H19C19 17.0523 18.5523 17.5 18 17.5V19.5ZM4 19.5H18V17.5H4V19.5ZM1 16.5C1 18.1569 2.34315 19.5 4 19.5V17.5C3.44772 17.5 3 17.0523 3 16.5H1ZM1 8.5V16.5H3V8.5H1ZM4 5.5C2.34315 5.5 1 6.84315 1 8.5H3C3 7.94772 3.44772 7.5 4 7.5V5.5ZM8 5.5H4V7.5H8V5.5ZM7 5.5V6.5H9V5.5H7ZM9 6.5H13V4.5H9V6.5ZM10 6.5V5.5H8V6.5H10ZM13 5.5H9V7.5H13V5.5ZM12 5.5V6.5H14V5.5H12Z" fill="#BBBBBB" mask="url(#path-1-inside-1_4603_2072)"/>
</svg>
