<svg width="40" height="40" viewBox="0 0 40 40" fill="none" xmlns="http://www.w3.org/2000/svg">
<path fill-rule="evenodd" clip-rule="evenodd" d="M19.8541 6.11642C19.4477 6.2941 19.1495 6.56561 18.9729 6.91876C18.8807 7.10287 18.1453 8.87644 17.3384 10.86C16.5317 12.8435 15.8136 14.5265 15.7429 14.5999C15.628 14.7191 15.1809 14.7671 11.5505 15.049C9.3154 15.2226 7.36844 15.3964 7.22396 15.4352C6.52901 15.6219 5.99774 16.3475 6.00001 17.1068C6.00242 17.9404 5.97216 17.9074 9.5138 20.9464C11.5928 22.7303 12.7136 23.7386 12.7424 23.8509C12.7701 23.9593 12.4347 25.481 11.8371 27.9573C10.8066 32.228 10.7648 32.4964 11.0468 33.041C11.2222 33.3796 11.6259 33.759 11.9609 33.9001C12.2605 34.0263 12.9175 34.0263 13.2105 33.9001C13.336 33.846 14.9974 32.8337 16.9026 31.6505C18.8078 30.4673 20.4121 29.4992 20.4678 29.4992C20.6179 29.4992 20.6095 29.4942 24.2664 31.7646C26.1298 32.9216 27.7557 33.8974 27.8795 33.9332C28.6737 34.1627 29.5455 33.7847 29.9288 33.0444C30.2121 32.4972 30.1711 32.2333 29.1369 27.945C28.3915 24.8542 28.1996 23.9602 28.2516 23.8219C28.2893 23.7218 29.6906 22.4683 31.4818 20.9322C34.8318 18.0593 34.8733 18.0165 34.9832 17.3141C35.1153 16.47 34.4517 15.5548 33.5936 15.3976C33.459 15.3729 31.5514 15.2127 29.3544 15.0414C25.8093 14.7651 25.3455 14.7152 25.2328 14.5982C25.1628 14.5258 24.4257 12.7953 23.5947 10.7529C22.7636 8.71041 21.9878 6.89591 21.8707 6.72058C21.4588 6.10399 20.5235 5.82376 19.8541 6.11642ZM20.7262 7.29747C20.9333 7.39259 20.783 7.05466 22.6092 11.5296C23.7753 14.3871 24.1422 15.2163 24.3274 15.4129C24.8023 15.9169 24.7786 15.9128 29.2646 16.2589C31.511 16.4322 33.4213 16.6056 33.5098 16.6441C33.7001 16.7271 33.8259 17.0178 33.7695 17.2445C33.7447 17.3438 32.5061 18.4563 30.5495 20.1365C27.7626 22.5296 27.3473 22.9123 27.1885 23.2334C27.0747 23.4636 27.0071 23.7207 27.0066 23.925C27.0062 24.1039 27.4426 26.0742 27.9766 28.3035L28.9474 32.3567L28.8029 32.5526C28.5004 32.9628 28.4984 32.9619 25.0481 30.8136C20.9099 28.2369 21.0625 28.3203 20.4887 28.3235C20.1585 28.3254 19.9463 28.3695 19.7392 28.4793C19.5803 28.5636 17.944 29.5685 16.1029 30.7125C12.469 32.9705 12.479 32.9657 12.1756 32.5543L12.0324 32.36L13.0026 28.3051C13.5363 26.0749 13.9723 24.1039 13.9715 23.925C13.9705 23.7207 13.9017 23.4616 13.7862 23.2283C13.6243 22.9007 13.2322 22.5387 10.4737 20.1701C8.75295 18.6925 7.30297 17.3989 7.25167 17.2956C7.13348 17.0574 7.2375 16.744 7.46756 16.645C7.55599 16.6069 9.46455 16.4344 11.7087 16.2616C16.2269 15.9137 16.1885 15.9205 16.6646 15.3877C16.8631 15.1656 17.2269 14.3417 18.4279 11.3949C20.2296 6.97418 20.0457 7.39188 20.231 7.3014C20.432 7.20327 20.5196 7.20256 20.7262 7.29747Z" fill="#1B1B1B"/>
</svg>
