<svg width="40" height="40" viewBox="0 0 40 40" fill="none" xmlns="http://www.w3.org/2000/svg">
<path fill-rule="evenodd" clip-rule="evenodd" d="M17.5554 3.02715C16.8856 3.1203 15.9691 3.5065 15.4213 3.92624C15.2536 4.05476 12.5069 6.77326 9.31748 9.96736L3.51856 15.7748L3.32462 16.1735C2.86759 17.1131 2.89385 18.1088 3.39896 18.9877C3.54239 19.2373 4.22118 19.9396 7.14081 22.8592C10.0604 25.7788 10.7627 26.4576 11.0123 26.601C11.8912 27.1061 12.887 27.1324 13.8265 26.6754L14.2252 26.4814L20.0327 20.6825C23.2268 17.4931 25.9453 14.7464 26.0738 14.5788C26.3672 14.1958 26.7348 13.4508 26.8723 12.9606C26.9764 12.5893 26.9776 12.5469 26.995 8.9503C27.0075 6.35708 26.9971 5.23458 26.959 5.03383C26.7799 4.09191 26.0064 3.28441 25.0722 3.06415C24.8256 3.00599 24.2118 2.99591 21.2373 3.00125C19.2897 3.00473 17.6328 3.01636 17.5554 3.02715ZM25.0856 4.12394C25.4568 4.29805 25.669 4.50401 25.8447 4.8609L25.9981 5.17243L26.0125 8.48023C26.0219 10.6393 26.0093 11.9405 25.9762 12.2271C25.9166 12.7446 25.7053 13.3459 25.4384 13.7579C25.3152 13.9481 23.376 15.9212 19.4592 19.8417C13.8983 25.4079 13.649 25.6504 13.334 25.7985C13.0269 25.943 12.9739 25.9528 12.5132 25.9514C11.608 25.9487 11.9839 26.2559 7.9029 22.1835C4.80744 19.0945 4.33 18.5995 4.20922 18.3545C4.01514 17.9607 3.95594 17.5977 4.02297 17.2128C4.14253 16.5263 3.77391 16.9271 10.1386 10.5642C14.082 6.62199 16.0515 4.68501 16.2421 4.56156C16.6052 4.32647 17.2526 4.08379 17.6582 4.0307C17.8339 4.00772 19.5183 3.99186 21.4015 3.99543L24.8255 4.00195L25.0856 4.12394ZM21.0263 6.04306C20.5226 6.14343 19.9694 6.45759 19.6361 6.8325C19.3528 7.15116 19.0913 7.72522 19.0316 8.15931C18.9242 8.94167 19.1864 9.70573 19.7529 10.2611C20.1725 10.6724 20.5737 10.8724 21.1712 10.9678C22.0497 11.1082 23.0626 10.6568 23.564 9.90137C24.2385 8.8851 24.114 7.59708 23.2581 6.74042C22.6623 6.14395 21.8279 5.88321 21.0263 6.04306ZM22.1597 7.16959C23.2746 7.71326 23.2679 9.29405 22.1484 9.84508C21.9553 9.94011 21.8482 9.95859 21.4953 9.95793C21.1452 9.95727 21.0372 9.93837 20.8621 9.84743C20.3501 9.58129 20.0618 9.14101 20.029 8.57507C20.0028 8.12254 20.1245 7.77578 20.4141 7.47785C20.9017 6.97616 21.534 6.86453 22.1597 7.16959Z" fill="#1B1B1B"/>
</svg>
