<svg width="40" height="40" viewBox="0 0 40 40" fill="none" xmlns="http://www.w3.org/2000/svg">
<path fill-rule="evenodd" clip-rule="evenodd" d="M18.3352 4.08095C10.8187 4.86327 4.83878 10.8911 4.07884 18.4514C3.41598 25.0455 6.98133 31.4328 12.9542 34.3518C16.7838 36.2233 21.046 36.5099 25.0618 35.166C31.3099 33.0749 35.6108 27.3844 35.9501 20.7596L36 19.7865L35.7998 19.5861C35.5386 19.3246 35.1902 19.32 34.9359 19.5747C34.7778 19.7328 34.7472 19.838 34.7472 20.2206C34.7472 20.9672 34.5976 22.2116 34.3945 23.1538C32.8976 30.1024 26.544 35.0326 19.4498 34.7507C17.3115 34.6658 15.5433 34.2279 13.6188 33.307C10.5528 31.8397 8.16884 29.4539 6.69376 26.3767C3.77812 20.2943 5.34221 13.0212 10.4943 8.70368C13.0084 6.59688 16.0974 5.39612 19.3729 5.25231C22.4702 5.11634 25.5668 5.98654 28.1796 7.72707C29.461 8.58072 29.481 8.53632 27.8132 8.53632C26.4302 8.53632 26.3909 8.54071 26.2278 8.71438C25.9975 8.95991 26.0105 9.30864 26.259 9.54248L26.4572 9.729L28.5459 9.75254C30.8132 9.77801 31.0671 9.7577 31.2923 9.53232C31.4339 9.39058 31.4417 9.25739 31.4417 7.003V4.62319L31.2391 4.46376C30.9728 4.254 30.7305 4.26216 30.4659 4.48977L30.2502 4.67536L30.2264 6.17967L30.2027 7.68406L29.573 7.20337C26.4724 4.83649 22.2767 3.67067 18.3352 4.08095ZM23.6677 15.2681C23.5563 15.3296 23.4412 15.4416 23.4117 15.5169C22.9536 16.6863 20.2185 24.333 20.2185 24.4444C20.2185 24.5286 20.2902 24.6887 20.3779 24.8002C20.5685 25.0428 20.9613 25.075 21.2072 24.8683C21.4332 24.6784 24.6196 15.9121 24.5556 15.6567C24.4592 15.2722 24.0132 15.0771 23.6677 15.2681ZM11.9013 16.7188C11.101 16.9446 10.5433 17.5433 10.3321 18.4033C10.2425 18.7679 10.2336 18.9382 10.2957 19.1007C10.4036 19.383 10.7868 19.5503 11.0863 19.4458C11.3445 19.3558 11.4178 19.2347 11.4944 18.7721C11.6057 18.1 12.2779 17.7001 12.8986 17.9366C13.2954 18.0877 13.5307 18.4635 13.5307 18.9457V19.3292L11.9263 20.9541C11.0438 21.8479 10.2992 22.6524 10.2716 22.7421C10.1899 23.0074 10.3526 23.3069 10.6452 23.4292C10.8496 23.5148 11.2883 23.5409 12.5175 23.5409C14.1763 23.5409 14.5478 23.4877 14.6854 23.2302C14.8097 22.9979 14.7718 22.6287 14.6069 22.4637C14.4682 22.3248 14.3507 22.3098 13.3999 22.3098H12.3465L13.3569 21.2885C14.5601 20.0721 14.7588 19.731 14.7599 18.8787C14.7612 17.9436 14.2542 17.1634 13.4184 16.8142C12.9986 16.6388 12.3333 16.597 11.9013 16.7188ZM17.9765 16.6952C17.9061 16.7364 17.7465 16.9344 17.6219 17.1354C17.4973 17.3363 16.8544 18.3264 16.1933 19.3357C15.3838 20.5715 14.9913 21.2392 14.9913 21.3806C14.9913 21.5065 15.0705 21.665 15.1895 21.777C15.378 21.9545 15.4432 21.9648 16.5347 21.9883L17.6818 22.0131V22.5358C17.6818 23.2084 17.8511 23.464 18.2968 23.464C18.7414 23.464 18.9117 23.2081 18.9117 22.5401V22.0217L19.2167 21.9728C20.052 21.8392 20.0327 20.7709 19.1951 20.7709H18.9117V18.8822V16.9935L18.723 16.8046C18.5264 16.6077 18.2065 16.5609 17.9765 16.6952ZM25.0555 16.8407C24.9319 16.9644 24.8308 17.1401 24.8308 17.2313C24.8308 17.3225 24.9319 17.4982 25.0555 17.622L25.2802 17.8469H26.5224C27.2057 17.8469 27.753 17.8729 27.7388 17.9046C27.7245 17.9363 27.5663 18.2585 27.3872 18.6205C26.8838 19.6377 26.7422 20.2845 26.6972 21.7712C26.6604 22.99 26.6656 23.0493 26.8266 23.2524C27.0416 23.5236 27.4973 23.549 27.7208 23.3023C27.8477 23.1621 27.8737 22.9696 27.9154 21.8595C27.9536 20.8459 27.9993 20.4661 28.1344 20.0399C28.3738 19.2848 28.7592 18.579 29.2657 17.9682C29.7748 17.3542 29.8263 17.0854 29.49 16.7959C29.2822 16.617 29.2673 16.6157 27.2804 16.6157H25.2802L25.0555 16.8407ZM17.6818 20.0783V20.7709H17.2206C16.9669 20.7709 16.7593 20.7532 16.7593 20.7316C16.7593 20.6796 17.6203 19.3858 17.6549 19.3858C17.6697 19.3858 17.6818 19.6975 17.6818 20.0783Z" fill="#1B1B1B"/>
</svg>
