<svg width="40" height="40" viewBox="0 0 40 40" fill="none" xmlns="http://www.w3.org/2000/svg">
<path fill-rule="evenodd" clip-rule="evenodd" d="M23.594 4.42191C23.2759 4.66079 22.5523 5.21466 21.986 5.6528C20.9119 6.4838 20.8207 6.59817 20.9668 6.93116C21.041 7.10028 23.8792 9.33785 24.161 9.44936C24.4936 9.58095 24.8277 9.34726 24.8277 8.9831C24.8277 8.69389 24.8321 8.69857 23.8995 7.97746C23.4998 7.66844 23.1859 7.40274 23.2018 7.38702C23.2177 7.37137 23.6075 7.43372 24.068 7.52556C29.1 8.52977 33.2015 12.3222 34.5095 17.1801C34.7956 18.2427 34.911 19.0149 34.9544 20.1595C35.0523 22.7381 34.399 25.2522 33.063 27.4384C30.9329 30.9242 27.5568 33.1558 23.378 33.8403C22.7497 33.9432 21.8853 33.9558 13.9737 33.9766L5.26123 33.9995L5.12713 34.1675C4.94987 34.3896 4.95778 34.5952 5.15211 34.8178L5.31118 35H13.9657C21.8906 35 22.6844 34.9904 23.3818 34.8858C26.8084 34.3721 29.6449 32.9396 31.9775 30.5448C34.0782 28.388 35.3969 25.746 35.8807 22.7249C36.0413 21.7214 36.0394 19.4962 35.877 18.4771C35.392 15.4342 34.0598 12.8052 31.8803 10.5898C30.6158 9.30466 29.4508 8.47164 27.826 7.69104C26.3872 6.99987 25.0045 6.57921 23.4783 6.36832L22.8867 6.28662L23.6391 5.7054C24.8341 4.78231 24.8277 4.78874 24.8277 4.50518C24.8277 4.31423 24.7876 4.22571 24.6541 4.12225C24.3787 3.90876 24.2164 3.95462 23.594 4.42191ZM17.2497 6.82055C15.5469 7.31331 13.6574 8.29629 12.2416 9.42598C11.6293 9.91452 10.5213 11.0134 10.0305 11.6189C7.16668 15.1524 6.15557 19.8357 7.30144 24.259C7.92046 26.6487 9.2801 28.9831 11.0941 30.7711C11.9539 31.6184 12.2119 31.8111 12.4871 31.8111C12.7735 31.8111 12.9665 31.6045 12.9665 31.2979C12.9665 31.1113 12.8843 31.0103 12.3003 30.4796C9.48075 27.9174 7.89246 24.3626 7.89246 20.6141C7.89246 17.0502 9.32412 13.6512 11.8726 11.1643C13.5063 9.57016 15.4194 8.44489 17.5637 7.81665C18.1254 7.65207 18.2893 7.5353 18.3428 7.2618C18.373 7.10755 18.3465 7.02267 18.2277 6.89362C18.0035 6.64993 17.873 6.64019 17.2497 6.82055ZM17.5757 13.211C15.3124 14.4974 13.4088 15.6112 13.3454 15.6862C13.2378 15.8132 13.23 16.1458 13.23 20.6141C13.23 25.0826 13.2378 25.4151 13.3454 25.5418C13.5283 25.7576 21.665 30.3563 21.8637 30.3563C22.0483 30.3563 29.9905 25.8816 30.3136 25.5956L30.4948 25.4352V20.6187V15.8021L30.3465 15.6576C30.2324 15.5463 22.8222 11.2875 22.1468 10.945C22.0676 10.9049 21.9327 10.872 21.8468 10.872C21.7609 10.872 19.8389 11.9246 17.5757 13.211ZM25.4132 13.9895C27.3314 15.079 28.8814 15.9903 28.8577 16.0147C28.785 16.0892 22.1707 19.8489 21.9883 19.9193C21.834 19.979 21.5416 19.8285 18.9242 18.3422C17.3327 17.4385 15.7545 16.5398 15.4171 16.345L14.8036 15.9907L17.0975 14.6869C18.3591 13.9698 19.9399 13.068 20.6104 12.6828C21.2809 12.2976 21.8511 11.9883 21.8775 11.9955C21.9039 12.0027 23.495 12.9 25.4132 13.9895ZM18.1917 19.1204L21.333 20.9064L21.3341 24.9169C21.3347 27.1227 21.3237 28.9274 21.3095 28.9274C21.2953 28.9274 20.5763 28.5234 19.7115 28.0298C18.8468 27.536 17.272 26.6398 16.2118 26.0381L14.2844 24.9441V20.9243V16.9046L14.6674 17.1195C14.8781 17.2376 16.464 18.138 18.1917 19.1204ZM29.4405 20.9286V24.9449L25.9712 26.92C24.0631 28.0062 22.4767 28.9047 22.4458 28.9166C22.4149 28.9285 22.3902 27.1311 22.391 24.9223L22.3924 20.9064L25.8999 18.912C27.8291 17.8151 29.415 16.9164 29.424 16.9149C29.433 16.9134 29.4405 18.7195 29.4405 20.9286Z" fill="#1B1B1B"/>
</svg>
