<svg width="40" height="40" viewBox="0 0 40 40" fill="none" xmlns="http://www.w3.org/2000/svg">
<path fill-rule="evenodd" clip-rule="evenodd" d="M14.096 3.02258C12.3174 3.19292 10.9946 3.56909 9.49694 4.33039C7.72282 5.23215 6.13084 6.65814 4.97004 8.38517C4.47855 9.11641 3.87794 10.3509 3.58956 11.2225C3.35679 11.9261 3.17189 12.7268 3.05888 13.5205C2.98037 14.0721 2.98037 15.9236 3.05888 16.4751C3.25552 17.8565 3.62086 19.0666 4.19167 20.227C4.83746 21.5399 5.47002 22.4219 6.51434 23.4656C7.54726 24.4977 8.44361 25.1423 9.70812 25.7622C10.5904 26.1948 11.1601 26.4053 12.0546 26.6295C14.4017 27.2178 16.7557 27.105 19.0489 26.2943C19.744 26.0486 20.9574 25.4409 21.5813 25.0261C22.9837 24.0934 24.2712 22.7745 25.19 21.3291C25.528 20.7973 26.0712 19.6754 26.2928 19.0514C27.3953 15.9468 27.2034 12.6147 25.7545 9.70334C25.1698 8.5284 24.5188 7.60755 23.6048 6.66241C22.5913 5.61423 21.5971 4.89106 20.2672 4.23439C18.8771 3.54803 17.5819 3.18166 16.0436 3.03961C15.5655 2.99548 14.4785 2.98596 14.096 3.02258ZM16.3167 4.07423C20.5737 4.59691 24.1442 7.55315 25.4694 11.6524C26.0594 13.4776 26.1517 15.5087 25.7307 17.4053C25.3864 18.9562 24.6173 20.5581 23.5936 21.8562C23.2482 22.2943 22.2889 23.2529 21.8506 23.598C20.2319 24.8728 18.3212 25.6706 16.266 25.9297C15.2203 26.0615 13.6928 25.9807 12.5833 25.7347C11.4804 25.4903 10.1709 24.9568 9.21893 24.3641C8.25336 23.763 7.02873 22.6809 6.38083 21.8562C5.10191 20.2285 4.30965 18.3331 4.0482 16.2753C3.97344 15.6868 3.97363 14.3098 4.04858 13.7081C4.24226 12.1533 4.82249 10.5069 5.64066 9.19037C6.44137 7.90198 7.77853 6.54455 9.0382 5.74123C9.8108 5.24852 10.7424 4.81312 11.6557 4.5177C12.4816 4.25062 13.2769 4.10078 14.3776 4.00496C14.6901 3.97776 15.8759 4.02011 16.3167 4.07423ZM14.7681 7.05387C14.4595 7.20596 14.4715 7.03774 14.4715 11.2383C14.4715 13.7819 14.4878 15.0823 14.5208 15.1707C14.5762 15.3188 19.9918 20.7629 20.235 20.9149C20.6194 21.1553 21.1026 20.7754 20.9706 20.3366C20.9524 20.2763 19.715 19.0025 18.2207 17.506L15.5039 14.785V11.1115C15.5039 7.03802 15.5162 7.20221 15.1999 7.05218C15.0074 6.96092 14.9563 6.96115 14.7681 7.05387Z" fill="#1B1B1B"/>
</svg>
