<svg width="40" height="40" viewBox="0 0 40 40" fill="none" xmlns="http://www.w3.org/2000/svg">
<path fill-rule="evenodd" clip-rule="evenodd" d="M18.7641 4.0388C18.592 4.05025 18.1414 4.10307 17.7628 4.1562C13.2253 4.79325 9.20765 7.3305 6.62216 11.192C5.60745 12.7075 4.67509 14.9339 4.31589 16.699C4.05468 17.9823 3.99799 18.5891 4.00005 20.0782C4.00218 21.581 4.07922 22.3033 4.37565 23.5985C5.28661 27.5787 7.70452 31.0637 11.1608 33.3778C12.6763 34.3926 14.9026 35.3249 16.6677 35.6841C17.951 35.9453 18.5578 36.002 20.047 35.9999C21.1845 35.9984 21.6233 35.9715 22.3311 35.8601C24.1025 35.5813 25.5305 35.128 27.1137 34.3421C30.2506 32.7849 32.7526 30.2829 34.3107 27.1449C35.2398 25.2739 35.7606 23.4353 35.9402 21.3923C36.5138 14.867 32.92 8.52149 27.0293 5.65852C24.389 4.37528 21.6834 3.84512 18.7641 4.0388ZM21.047 5.4358C25.518 5.7833 29.4614 8.03532 32.015 11.6993C33.3247 13.5784 34.1496 15.7168 34.5111 18.1695C34.6361 19.0176 34.6184 21.1259 34.4784 22.0494C33.9867 25.2944 32.605 28.0432 30.3098 30.3427C28.0289 32.6278 25.2564 34.0209 22.0182 34.5091C20.964 34.668 18.7829 34.67 17.8254 34.5128C14.5474 33.9748 11.8457 32.5947 9.58181 30.3017C8.46115 29.1665 7.66121 28.0662 6.96722 26.705C5.86321 24.5395 5.37947 22.5156 5.37578 20.0469C5.37372 18.6804 5.42753 18.1393 5.6873 16.915C7.18637 9.8491 13.841 4.8756 21.047 5.4358ZM19.4837 13.0736C19.0682 13.2477 18.7775 13.6967 18.7775 14.1645C18.7775 15.3794 20.4341 15.7775 20.9862 14.6953C21.2403 14.1973 21.0895 13.5633 20.6345 13.2163C20.4532 13.078 20.33 13.0395 20.0238 13.0256C19.8128 13.016 19.5698 13.0375 19.4837 13.0736ZM17.8567 18.764V19.4524H18.5764H19.296V22.5813V25.7103H18.5764H17.8567V26.3986V27.087H19.9844H22.112V26.3986V25.7103H21.3924H20.6727V21.893V18.0757H19.2647H17.8567V18.764Z" fill="#1B1B1B"/>
</svg>
