<svg width="24" height="25" viewBox="0 0 24 25" fill="none" xmlns="http://www.w3.org/2000/svg">
<path fill-rule="evenodd" clip-rule="evenodd" d="M4.55578 6.06248C4.46057 6.09726 4.27809 6.26615 4.21162 6.38095C4.18017 6.43532 4.1475 6.77995 4.1339 7.20126L4.11046 7.92782L3.1964 7.95384C2.69367 7.96813 2.27606 7.98393 2.26837 7.98899C2.26068 7.99401 2.22642 8.0646 2.19229 8.14584C2.1045 8.35462 2.16154 8.52088 2.35504 8.62007C2.50434 8.69657 2.69756 8.70196 4.87627 8.69038L7.23581 8.67782L7.34892 8.54629C7.48767 8.38499 7.49264 8.2372 7.36486 8.07478L7.26773 7.95126H6.0758H4.88391V7.36532V6.77939H11.0951H17.3062L17.2943 11.6661L17.2823 16.5528L14.5506 16.5649C12.3892 16.5745 11.8145 16.5647 11.7983 16.518C11.5805 15.8917 11.3836 15.5912 11 15.2997C10.3907 14.8368 9.51825 14.7676 8.8148 15.1265C8.38936 15.3435 7.99964 15.8147 7.82934 16.3178L7.7498 16.5528L6.31683 16.5652L4.88391 16.5776V15.4988V14.42H5.51672C6.08705 14.42 6.15881 14.4107 6.24328 14.3263C6.38583 14.1837 6.38353 13.9363 6.23827 13.7872C6.14916 13.6957 6.08522 13.6934 3.61293 13.6934H1.07892L0.965761 13.825C0.827011 13.9863 0.822042 14.1341 0.949823 14.2965L1.04695 14.42H2.59045H4.1339V15.7507C4.1339 16.9909 4.14 17.089 4.22348 17.1922L4.31301 17.3028L6.03473 17.3263L7.75645 17.3497L7.81247 17.5372C8.03095 18.2687 8.67295 18.8297 9.45403 18.9717C10.3982 19.1433 11.4516 18.5051 11.7175 17.6003L11.798 17.3264L15.1993 17.3263L18.6006 17.3263L18.6604 17.5597C18.7898 18.0648 19.2284 18.5624 19.7579 18.8048C20.865 19.3117 22.1457 18.7621 22.5519 17.6059L22.6419 17.3497L23.0814 17.3263C23.5689 17.3002 23.7147 17.2372 23.8721 16.9839C23.9603 16.8419 23.9645 16.762 23.9519 15.4513C23.9388 14.0904 23.9367 14.064 23.8196 13.7872C23.7542 13.6325 23.2314 12.6622 22.6578 11.6309C21.5609 9.65882 21.4207 9.45806 21.0735 9.36163C20.9623 9.33074 20.3422 9.31106 19.4763 9.31092L18.0608 9.31064L18.0466 7.89267C18.0325 6.49406 18.0308 6.47259 17.9232 6.32165C17.6993 6.00778 18.2028 6.02901 11.0855 6.03309C7.53281 6.0351 4.59445 6.04837 4.55578 6.06248ZM4.34484 9.50788C4.14309 9.62357 4.13695 9.66281 4.1354 10.8458L4.1339 11.9825H3.56929C3.03229 11.9825 2.99901 11.9881 2.8896 12.0976C2.73735 12.2498 2.73735 12.4652 2.8896 12.6174L3.00464 12.7325H6.44578C9.85608 12.7325 9.888 12.7316 10.0104 12.6353C10.1849 12.4981 10.1849 12.2169 10.0104 12.0797C9.88894 11.9842 9.84511 11.9825 7.38539 11.9825H4.88391V10.8539V9.72529L4.74689 9.58827C4.60087 9.44226 4.49587 9.42126 4.34484 9.50788ZM0.113104 10.0867C-0.0471615 10.199 -0.0345993 10.5352 0.134854 10.6685C0.257667 10.7651 0.295776 10.7672 1.6859 10.754L3.11104 10.7403L3.20057 10.6297C3.32493 10.476 3.31631 10.2422 3.18168 10.1157C3.07518 10.0156 3.04682 10.0138 1.64521 10.0138C0.428667 10.0138 0.201838 10.0245 0.113104 10.0867ZM20.9445 10.1486C21.0993 10.3294 23.0772 13.937 23.1433 14.159C23.1952 14.3334 23.212 14.659 23.212 15.4854V16.5807L22.9274 16.5668L22.6427 16.5528L22.5633 16.3178C22.2096 15.2706 21.1487 14.6879 20.093 14.961C19.4174 15.1359 18.8409 15.6933 18.6407 16.3653C18.585 16.5527 18.5847 16.5528 18.3203 16.5669L18.0558 16.5809V13.3208V10.0606H19.4625C20.7804 10.0606 20.874 10.0662 20.9445 10.1486ZM10.1767 15.7122C10.4658 15.798 10.797 16.0796 10.941 16.3619C11.0747 16.6241 11.1032 17.0656 11.0054 17.3601C10.9038 17.6662 10.6512 17.9558 10.3513 18.1103C10.0585 18.2612 9.56639 18.28 9.2753 18.1514C9.00502 18.032 8.70403 17.7284 8.58764 17.4578C8.45934 17.1597 8.46994 16.6573 8.61066 16.3673C8.80547 15.9659 9.30122 15.6468 9.73866 15.6412C9.84356 15.6398 10.0407 15.6718 10.1767 15.7122ZM21.0714 15.7336C21.9628 16.0671 22.1917 17.2632 21.486 17.8994C21.2169 18.1421 20.9935 18.2292 20.6339 18.2319C19.9095 18.2372 19.3781 17.7453 19.332 17.0264C19.3051 16.6086 19.4187 16.3094 19.7139 16.0196C20.0823 15.658 20.5858 15.5519 21.0714 15.7336Z" fill="#BBBBBB"/>
</svg>
