<svg width="22" height="23" viewBox="0 0 22 23" fill="none" xmlns="http://www.w3.org/2000/svg">
<path d="M10.5 11.5L10.5 12L11 12L19.4853 12C19.3966 13.5054 18.9086 14.9635 18.0675 16.2223C17.1335 17.6202 15.806 18.7096 14.2528 19.353C12.6996 19.9963 10.9906 20.1646 9.34174 19.8367C7.6929 19.5087 6.17834 18.6991 4.9896 17.5104C3.80085 16.3217 2.9913 14.8071 2.66333 13.1583C2.33535 11.5094 2.50368 9.80036 3.14703 8.24719C3.79037 6.69402 4.87984 5.3665 6.27766 4.4325C7.53653 3.59135 8.99458 3.1034 10.5 3.01471L10.5 11.5ZM18.9291 7.62987C19.2421 8.38549 19.4289 9.18616 19.4833 10L12.5 9.99999L12.5 3.01668C13.3138 3.07106 14.1145 3.25791 14.8701 3.5709C15.7801 3.94781 16.6069 4.50025 17.3033 5.19669C17.9997 5.89313 18.5522 6.71993 18.9291 7.62987Z" stroke="#BBBBBB"/>
</svg>
