<svg width="24" height="25" viewBox="0 0 24 25" fill="none" xmlns="http://www.w3.org/2000/svg">
<g clip-path="url(#clip0_614_12399)">
<path d="M0.567851 23.9395L0.567531 23.9395C0.554698 23.9427 0.546699 23.9415 0.540916 23.9398C0.533836 23.9377 0.525383 23.9332 0.517496 23.9254C0.50959 23.9176 0.504571 23.9088 0.50211 23.9009C0.500029 23.8943 0.498839 23.8857 0.501682 23.8729L1.53682 19.2219L5.14308 22.8302L0.567851 23.9395ZM3.27548 16.9023L14.9238 5.25139L19.0988 9.42634L7.44798 21.0772L3.27548 16.9023ZM20.9797 1.5431L23.157 3.72035C23.6143 4.17769 23.6143 4.91359 23.157 5.371C23.157 5.371 23.157 5.371 23.157 5.37101L21.0778 7.45016L16.9028 3.27513L18.6342 1.5437C18.6344 1.54355 18.6345 1.5434 18.6347 1.54325C19.2842 0.8964 20.334 0.897407 20.9797 1.5431Z" stroke="#BBBBBB"/>
</g>
<defs>
<clipPath id="clip0_614_12399">
<rect width="24" height="24" fill="white" transform="translate(0 0.5)"/>
</clipPath>
</defs>
</svg>
