<svg width="13" height="13" viewBox="0 0 13 13" fill="none" xmlns="http://www.w3.org/2000/svg">
<path fill-rule="evenodd" clip-rule="evenodd" d="M4.43534 3.97998C2.09948 6.3146 0.700401 7.73147 0.600006 7.86414C0.217598 8.36951 0.000305066 8.98973 3.78181e-07 9.57679C-0.000659778 10.8176 0.863028 12.0355 2.07579 12.5039C2.82199 12.7921 3.65549 12.7577 4.35439 12.41C4.81642 12.1802 4.71534 12.2758 8.65462 8.34349C10.8575 6.14448 12.4294 4.55594 12.5145 4.44265C12.8586 3.98491 13.0272 3.44287 12.9916 2.90928C12.9119 1.71608 11.9311 0.694078 10.7378 0.561031C10.2105 0.502227 9.6965 0.634664 9.19131 0.959486C9.03581 1.05945 4.33674 5.73051 4.14835 5.97236C4.01517 6.14334 3.87654 6.42637 3.822 6.63863C3.77221 6.83236 3.77251 7.22615 3.82261 7.43945C3.90368 7.78464 4.17978 8.23329 4.44978 8.45866C4.82937 8.77546 5.22113 8.92402 5.6747 8.92321C6.07806 8.92247 6.40265 8.81077 6.72915 8.56032C6.81952 8.49101 7.81039 7.51618 8.93105 6.39402L10.9686 4.35376V4.24496C10.9686 4.09929 10.9141 4.00238 10.8023 3.94931C10.5964 3.85163 10.7251 3.73892 8.42959 6.02875C6.5084 7.94523 6.32097 8.12505 6.16723 8.19947C5.83345 8.36103 5.50393 8.36349 5.17286 8.20688C4.83793 8.04845 4.54383 7.72101 4.44288 7.39418C4.34751 7.08543 4.38814 6.72227 4.54812 6.453C4.6342 6.30812 9.3273 1.61563 9.53073 1.47103C9.74475 1.31892 10.0265 1.20748 10.2966 1.16807C11.017 1.06305 11.8224 1.52268 12.1873 2.24707C12.4964 2.86053 12.4478 3.49512 12.0493 4.04709C11.8868 4.27228 4.59499 11.5466 4.40517 11.673C3.60395 12.2062 2.69039 12.2279 1.89127 11.7327C1.42812 11.4457 1.10713 11.0966 0.87387 10.626C0.674604 10.224 0.626793 10.0227 0.626489 9.58496C0.626286 9.27179 0.634334 9.20291 0.69418 9.00613C0.770403 8.7554 0.872397 8.5407 1.02228 8.31543C1.08751 8.21737 2.44222 6.84221 4.82427 4.45605C7.72624 1.54908 8.52787 0.732596 8.53864 0.672852C8.56083 0.549377 8.53087 0.462059 8.43845 0.380885C8.36829 0.319287 8.32873 0.304688 8.23212 0.304688H8.11261L4.43534 3.97998Z" fill="#1B1B1B"/>
</svg>
