<svg width="26" height="27" viewBox="0 0 26 27" fill="none" xmlns="http://www.w3.org/2000/svg">
<path d="M4 3.5H6.47826L7.30435 7.25M22.587 18.5H9.78261L9.23188 16M7.30435 7.25H23V13.9167L9.23188 16M7.30435 7.25L9.23188 16" stroke="#BBBBBB" stroke-linecap="round"/>
<path d="M12.2611 24C13.2257 24 14.0002 23.2124 14.0002 22.25C14.0002 21.2876 13.2257 20.5 12.2611 20.5C11.2965 20.5 10.522 21.2876 10.522 22.25C10.522 23.2124 11.2965 24 12.2611 24Z" stroke="#BBBBBB"/>
<path d="M20.5214 24C21.486 24 22.2605 23.2124 22.2605 22.25C22.2605 21.2876 21.486 20.5 20.5214 20.5C19.5568 20.5 18.7822 21.2876 18.7822 22.25C18.7822 23.2124 19.5568 24 20.5214 24Z" stroke="#BBBBBB"/>
</svg>
