<svg width="20" height="21" viewBox="0 0 20 21" fill="none" xmlns="http://www.w3.org/2000/svg">
<path fill-rule="evenodd" clip-rule="evenodd" d="M9.90418 2.0181C8.07611 2.18347 6.40167 2.88604 5.04736 4.05599C3.66545 5.2498 2.69806 6.88099 2.31384 8.66532C2.26872 8.87482 2.22389 9.04569 2.21421 9.04505C2.20453 9.04441 2.14118 8.96204 2.07343 8.86203C1.89267 8.59518 1.79226 8.53252 1.54551 8.53252C1.20399 8.53252 1 8.73702 1 9.07936V9.28425L1.61467 10.2141C1.95271 10.7256 2.2739 11.1818 2.32838 11.228C2.44638 11.328 2.62253 11.3671 2.80371 11.3337C2.91686 11.3129 3.05465 11.1896 3.76888 10.4703C4.6674 9.56545 4.68341 9.54237 4.62601 9.23424C4.59352 9.05979 4.38299 8.84778 4.20976 8.81507C3.96646 8.7691 3.83927 8.8212 3.58049 9.07277C3.43693 9.21234 3.34043 9.28375 3.34043 9.2504C3.34043 9.12894 3.58549 8.22875 3.70951 7.89456C4.8011 4.95349 7.71959 3.00648 10.8368 3.1397C14.51 3.29671 17.4313 6.0638 17.84 9.773C17.9454 10.7293 17.817 11.858 17.4916 12.8383C16.5767 15.5938 14.1559 17.5357 11.2642 17.834C8.80798 18.0872 6.49458 17.1165 4.9757 15.1952C4.79909 14.9718 4.66293 14.8342 4.58648 14.8021C4.16169 14.6234 3.72721 14.982 3.8127 15.4408C3.85705 15.6789 4.55998 16.5067 5.15361 17.0199C5.99957 17.7512 6.9059 18.2678 7.92499 18.5995C8.72172 18.8589 9.31545 18.9625 10.1857 18.9939C12.0721 19.062 13.8179 18.5586 15.3303 17.5105C16.6427 16.601 17.682 15.3337 18.2949 13.8951C19.1356 11.9221 19.226 9.82885 18.5581 7.80858C17.4965 4.59804 14.6699 2.34374 11.312 2.02969C10.948 1.99567 10.2185 1.98964 9.90418 2.0181ZM10.045 5.16041C9.9146 5.2212 9.79772 5.34624 9.74817 5.47794C9.72279 5.54538 9.71061 6.43821 9.71061 8.23286C9.71061 10.5746 9.71719 10.9046 9.76643 11.0285C9.81595 11.1531 10.0256 11.3226 11.6202 12.5267L13.4182 13.8843H13.6207C13.8477 13.8843 13.9658 13.8191 14.1011 13.6188C14.2029 13.4682 14.2072 13.2203 14.1107 13.061C14.0316 12.9303 14.0924 12.9788 12.2446 11.571L10.8544 10.5118L10.8368 7.99185C10.8196 5.51607 10.818 5.47021 10.7467 5.37406C10.7068 5.32026 10.6327 5.24508 10.5821 5.20705C10.4655 5.11937 10.1852 5.09502 10.045 5.16041Z" fill="#BBBBBB"/>
</svg>
