<svg width="16" height="17" viewBox="0 0 16 17" fill="none" xmlns="http://www.w3.org/2000/svg">
<path d="M7.80388 4.3724L8.2002 4.8876L8.59651 4.3724C9.25371 3.51804 10.271 3 11.3803 3C13.3183 3 14.9004 4.58532 14.9004 6.53886C14.9004 7.51323 14.513 8.41856 13.8228 9.0857L13.8228 9.08561L13.815 9.09342L8.25379 14.7109L8.25363 14.7111L8.2002 14.765L8.14673 14.711L8.1466 14.7109L2.47982 8.98791C1.84697 8.32396 1.5 7.45525 1.5 6.53886C1.5 4.58532 3.08206 3 5.02011 3C6.12943 3 7.14668 3.51804 7.80388 4.3724Z" stroke="#BBBBBB"/>
</svg>
