<svg width="19" height="19" viewBox="0 0 19 19" fill="none" xmlns="http://www.w3.org/2000/svg">
<circle cx="9.5" cy="9.5" r="9" stroke="#1B1B1B"/>
<path d="M9.99805 14H8.91406V7.66016H9.99805V14ZM8.82617 5.97852C8.82617 5.80273 8.87891 5.6543 8.98438 5.5332C9.09375 5.41211 9.25391 5.35156 9.46484 5.35156C9.67578 5.35156 9.83594 5.41211 9.94531 5.5332C10.0547 5.6543 10.1094 5.80273 10.1094 5.97852C10.1094 6.1543 10.0547 6.30078 9.94531 6.41797C9.83594 6.53516 9.67578 6.59375 9.46484 6.59375C9.25391 6.59375 9.09375 6.53516 8.98438 6.41797C8.87891 6.30078 8.82617 6.1543 8.82617 5.97852Z" fill="#1B1B1B"/>
</svg>
