<svg width="26" height="26" viewBox="0 0 26 26" fill="none" xmlns="http://www.w3.org/2000/svg">
<mask id="path-1-inside-1_2474_10544" fill="white">
<path fill-rule="evenodd" clip-rule="evenodd" d="M13 26C13 26 23 15.5228 23 10C23 4.47715 18.5228 0 13 0C7.47715 0 3 4.47715 3 10C3 15.5228 13 26 13 26ZM13 13C14.6569 13 16 11.6569 16 10C16 8.34315 14.6569 7 13 7C11.3431 7 10 8.34315 10 10C10 11.6569 11.3431 13 13 13Z"/>
</mask>
<path d="M13 26L12.2766 26.6904L13 27.4483L13.7234 26.6904L13 26ZM22 10C22 11.1255 21.4743 12.6349 20.555 14.3596C19.6519 16.0541 18.4359 17.8349 17.2021 19.4683C15.971 21.098 14.7376 22.5608 13.8108 23.6171C13.3479 24.1448 12.9625 24.5698 12.6937 24.862C12.5593 25.0081 12.4541 25.121 12.3829 25.1969C12.3474 25.2348 12.3203 25.2635 12.3024 25.2824C12.2934 25.2919 12.2867 25.2989 12.2824 25.3035C12.2803 25.3057 12.2787 25.3074 12.2777 25.3084C12.2772 25.3089 12.2769 25.3093 12.2767 25.3095C12.2766 25.3095 12.2766 25.3096 12.2765 25.3096C12.2766 25.3096 12.2766 25.3096 13 26C13.7234 26.6904 13.7235 26.6903 13.7237 26.6901C13.7238 26.69 13.724 26.6898 13.7242 26.6896C13.7246 26.6891 13.7252 26.6885 13.7259 26.6878C13.7274 26.6863 13.7294 26.6841 13.7321 26.6813C13.7374 26.6758 13.745 26.6677 13.755 26.6572C13.7749 26.6361 13.804 26.6053 13.8417 26.5651C13.917 26.4848 14.0266 26.3672 14.1657 26.216C14.4437 25.9137 14.8396 25.477 15.3142 24.9362C16.2624 23.8555 17.529 22.3537 18.7979 20.6738C20.0641 18.9976 21.3481 17.1236 22.32 15.3003C23.2757 13.5073 24 11.6359 24 10H22ZM13 1C17.9706 1 22 5.02944 22 10H24C24 3.92487 19.0751 -1 13 -1V1ZM4 10C4 5.02944 8.02944 1 13 1V-1C6.92487 -1 2 3.92487 2 10H4ZM13 26C13.7234 25.3096 13.7234 25.3096 13.7235 25.3096C13.7234 25.3096 13.7234 25.3095 13.7233 25.3095C13.7231 25.3093 13.7228 25.3089 13.7223 25.3084C13.7213 25.3074 13.7197 25.3057 13.7176 25.3035C13.7133 25.2989 13.7066 25.2919 13.6976 25.2824C13.6797 25.2635 13.6526 25.2348 13.6171 25.1969C13.5459 25.121 13.4407 25.0081 13.3063 24.862C13.0375 24.5698 12.6521 24.1448 12.1892 23.6171C11.2624 22.5608 10.029 21.098 8.79794 19.4683C7.56412 17.8349 6.34815 16.0541 5.44497 14.3596C4.52569 12.6349 4 11.1255 4 10H2C2 11.6359 2.72431 13.5073 3.68003 15.3003C4.65185 17.1236 5.93588 18.9976 7.20206 20.6738C8.47103 22.3537 9.73764 23.8555 10.6858 24.9362C11.1604 25.477 11.5563 25.9137 11.8343 26.216C11.9734 26.3672 12.083 26.4848 12.1583 26.5651C12.196 26.6053 12.2251 26.6361 12.245 26.6572C12.255 26.6677 12.2626 26.6758 12.2679 26.6813C12.2706 26.6841 12.2726 26.6863 12.2741 26.6878C12.2748 26.6885 12.2754 26.6891 12.2758 26.6896C12.276 26.6898 12.2762 26.69 12.2763 26.6901C12.2765 26.6903 12.2766 26.6904 13 26ZM15 10C15 11.1046 14.1046 12 13 12V14C15.2091 14 17 12.2091 17 10H15ZM13 8C14.1046 8 15 8.89543 15 10H17C17 7.79086 15.2091 6 13 6V8ZM11 10C11 8.89543 11.8954 8 13 8V6C10.7909 6 9 7.79086 9 10H11ZM13 12C11.8954 12 11 11.1046 11 10H9C9 12.2091 10.7909 14 13 14V12Z" fill="#BBBBBB" mask="url(#path-1-inside-1_2474_10544)"/>
</svg>
