<svg width="32" height="32" viewBox="0 0 32 32" fill="none" xmlns="http://www.w3.org/2000/svg">
<path fill-rule="evenodd" clip-rule="evenodd" d="M15.1726 3.7402C13.9899 3.84551 13.052 4.11276 11.8986 4.67295C8.55943 6.29487 6.5018 9.78237 6.70074 13.4829C6.88205 16.8545 8.51968 20.3303 11.7527 24.2054C12.7709 25.4257 15.3692 27.9772 15.8517 28.2304C16.1037 28.3626 16.4209 28.1143 18.0707 26.4934C22.0689 22.5652 24.5444 18.469 25.1563 14.7685C25.3094 13.8427 25.3099 12.1881 25.1572 11.3622C24.9416 10.1955 24.4545 8.96019 23.8328 8.00356C22.8854 6.54581 21.6805 5.45857 20.1799 4.70738C19.0391 4.13626 18.0338 3.85376 16.733 3.73863C15.9601 3.6702 15.9579 3.6702 15.1726 3.7402ZM17.7111 4.63775C19.3557 5.00963 20.6847 5.71207 21.8537 6.82743C23.2038 8.11537 24.0839 9.74431 24.4052 11.5497C24.5407 12.3115 24.5422 13.7442 24.4083 14.5497C23.9169 17.5051 22.2836 20.6119 19.5244 23.8401C18.7957 24.6925 16.9519 26.5734 16.3529 27.0752L15.9947 27.3754L15.7904 27.2057C14.3434 26.0041 12.1327 23.5914 10.8882 21.8555C8.05524 17.9042 6.9458 14.1808 7.67761 11.081C8.17693 8.966 9.46955 7.11225 11.29 5.90038C12.2616 5.25351 13.4387 4.78132 14.5772 4.58176C15.2443 4.46476 17.0922 4.49782 17.7111 4.63775ZM15.4299 8.60806C13.1787 8.92087 11.5527 10.7656 11.5424 13.0185C11.5389 13.7869 11.6652 14.3501 11.9911 15.0185C12.5669 16.1993 13.6947 17.103 14.9572 17.3951C15.5087 17.5227 16.4715 17.5238 17.0162 17.3975C18.3016 17.0994 19.4097 16.2139 19.9933 15.0185C20.3194 14.3505 20.4459 13.7873 20.4424 13.0185C20.4346 11.3114 19.5074 9.81456 17.9802 9.04362C17.2695 8.68481 16.1964 8.50156 15.4299 8.60806ZM16.8842 9.46037C18.2032 9.80219 19.2792 10.8893 19.5859 12.1901C19.8812 13.4429 19.5119 14.7228 18.5887 15.6461C17.1224 17.1123 14.8727 17.1123 13.3916 15.6461C12.2531 14.5189 11.9816 12.8574 12.6942 11.3782C12.9557 10.8355 13.738 10.0357 14.2639 9.7735C15.0679 9.37262 16.0792 9.25175 16.8842 9.46037Z" fill="black"/>
</svg>
