<svg width="26" height="26" viewBox="0 0 26 26" fill="none" xmlns="http://www.w3.org/2000/svg">
<mask id="path-1-outside-1_2528_11135" maskUnits="userSpaceOnUse" x="3.53906" y="1" width="19" height="25" fill="black">
<rect fill="white" x="3.53906" y="1" width="19" height="25"/>
<path fill-rule="evenodd" clip-rule="evenodd" d="M13.0006 24C13.0006 24 21.4621 15.1347 21.4621 10.4615C21.4621 5.78836 17.6738 2 13.0006 2C8.32742 2 4.53906 5.78836 4.53906 10.4615C4.53906 15.1347 13.0006 24 13.0006 24ZM13 13C14.402 13 15.5385 11.8635 15.5385 10.4615C15.5385 9.05959 14.402 7.92309 13 7.92309C11.5981 7.92309 10.4616 9.05959 10.4616 10.4615C10.4616 11.8635 11.5981 13 13 13Z"/>
</mask>
<path fill-rule="evenodd" clip-rule="evenodd" d="M13.0006 24C13.0006 24 21.4621 15.1347 21.4621 10.4615C21.4621 5.78836 17.6738 2 13.0006 2C8.32742 2 4.53906 5.78836 4.53906 10.4615C4.53906 15.1347 13.0006 24 13.0006 24ZM13 13C14.402 13 15.5385 11.8635 15.5385 10.4615C15.5385 9.05959 14.402 7.92309 13 7.92309C11.5981 7.92309 10.4616 9.05959 10.4616 10.4615C10.4616 11.8635 11.5981 13 13 13Z" fill="#1B1B1B"/>
<path d="M13.0006 24L12.2772 24.6904L13.0006 25.4483L13.724 24.6904L13.0006 24ZM20.4621 10.4615C20.4621 11.3746 20.0326 12.624 19.2576 14.0781C18.4986 15.5019 17.4749 17.0017 16.4334 18.3805C15.3947 19.7556 14.3536 20.9903 13.571 21.8823C13.1802 22.3277 12.855 22.6864 12.6282 22.933C12.5148 23.0562 12.4261 23.1513 12.3663 23.2152C12.3363 23.2471 12.3136 23.2712 12.2986 23.287C12.2911 23.295 12.2855 23.3009 12.2819 23.3046C12.2801 23.3065 12.2788 23.3079 12.278 23.3087C12.2776 23.3091 12.2774 23.3094 12.2772 23.3095C12.2772 23.3096 12.2772 23.3096 12.2771 23.3096C12.2772 23.3096 12.2772 23.3096 13.0006 24C13.724 24.6904 13.7241 24.6903 13.7243 24.6902C13.7244 24.6901 13.7245 24.6899 13.7247 24.6897C13.7251 24.6893 13.7256 24.6887 13.7262 24.6881C13.7275 24.6867 13.7293 24.6849 13.7316 24.6825C13.7361 24.6777 13.7427 24.6708 13.7512 24.6618C13.7682 24.6438 13.793 24.6176 13.825 24.5834C13.8891 24.5151 13.9822 24.4152 14.1002 24.2869C14.3361 24.0304 14.672 23.66 15.0744 23.2013C15.8783 22.285 16.9527 21.0113 18.0293 19.5859C19.1032 18.1643 20.1949 16.5715 21.0225 15.0188C21.834 13.4963 22.4621 11.885 22.4621 10.4615H20.4621ZM13.0006 3C17.1215 3 20.4621 6.34064 20.4621 10.4615H22.4621C22.4621 5.23607 18.2261 1 13.0006 1V3ZM5.53906 10.4615C5.53906 6.34064 8.87971 3 13.0006 3V1C7.77514 1 3.53906 5.23607 3.53906 10.4615H5.53906ZM13.0006 24C13.724 23.3096 13.724 23.3096 13.7241 23.3096C13.724 23.3096 13.724 23.3096 13.724 23.3095C13.7238 23.3094 13.7236 23.3091 13.7232 23.3087C13.7224 23.3079 13.7211 23.3065 13.7193 23.3046C13.7157 23.3009 13.7101 23.295 13.7026 23.287C13.6876 23.2712 13.6649 23.2471 13.6349 23.2152C13.5751 23.1513 13.4864 23.0562 13.373 22.933C13.1462 22.6864 12.821 22.3277 12.4302 21.8823C11.6476 20.9903 10.6065 19.7556 9.56777 18.3805C8.52626 17.0017 7.50259 15.5019 6.74365 14.0781C5.9686 12.624 5.53906 11.3746 5.53906 10.4615H3.53906C3.53906 11.885 4.16722 13.4963 4.97871 15.0188C5.8063 16.5715 6.89802 18.1643 7.97189 19.5859C9.04855 21.0113 10.1229 22.285 10.9268 23.2013C11.3292 23.66 11.6651 24.0304 11.901 24.2869C12.019 24.4152 12.1121 24.5151 12.1762 24.5834C12.2082 24.6176 12.233 24.6438 12.25 24.6618C12.2585 24.6708 12.2651 24.6777 12.2696 24.6825C12.2719 24.6849 12.2737 24.6867 12.275 24.6881C12.2756 24.6887 12.2761 24.6893 12.2765 24.6897C12.2767 24.6899 12.2768 24.6901 12.2769 24.6902C12.2771 24.6903 12.2772 24.6904 13.0006 24ZM14.5385 10.4615C14.5385 11.3112 13.8497 12 13 12V14C14.9543 14 16.5385 12.4158 16.5385 10.4615H14.5385ZM13 8.92309C13.8497 8.92309 14.5385 9.61188 14.5385 10.4615H16.5385C16.5385 8.50731 14.9543 6.92309 13 6.92309V8.92309ZM11.4616 10.4615C11.4616 9.61188 12.1504 8.92309 13 8.92309V6.92309C11.0458 6.92309 9.46159 8.50731 9.46159 10.4615H11.4616ZM13 12C12.1504 12 11.4616 11.3112 11.4616 10.4615H9.46159C9.46159 12.4158 11.0458 14 13 14V12Z" fill="#00FF00" mask="url(#path-1-outside-1_2528_11135)"/>
</svg>
