<svg width="106" height="29" viewBox="0 0 106 29" fill="none" xmlns="http://www.w3.org/2000/svg">
<path fill-rule="evenodd" clip-rule="evenodd" d="M106 0H91.7991V7.12281H98.8996V14.5H106V7.12281V4.32456V0Z" fill="#BA8258"/>
<path fill-rule="evenodd" clip-rule="evenodd" d="M0 0H18.0048C25.4276 0 31.445 6.49187 31.445 14.5C31.445 22.5081 25.4276 29 18.0048 29H0V0ZM7.10048 7.12281H16.9741C21.0446 7.12281 24.3445 10.4257 24.3445 14.5C24.3445 18.5743 21.0446 21.8772 16.9741 21.8772H7.10048V7.12281ZM42.4761 0H37.5311V29H44.8852V9.7438L61.7488 29L62.6364 29L66.3134 29L69.9904 29V27.6009V0H62.6364V19.0857L46.1531 0H44.8852H42.4761ZM77.0909 0H84.445V21.6228L106 21.6228V29H84.445H77.0909V21.6228V0Z" fill="#1B1B1B"/>
</svg>
