<?xml version="1.0" encoding="UTF-8" standalone="no" ?>
<!DOCTYPE svg PUBLIC "-//W3C//DTD SVG 1.1//EN" "http://www.w3.org/Graphics/SVG/1.1/DTD/svg11.dtd">
<svg xmlns="http://www.w3.org/2000/svg" xmlns:xlink="http://www.w3.org/1999/xlink" version="1.1" width="400" height="400" viewBox="0 0 400 400" xml:space="preserve">
<desc>Created with Fabric.js 3.6.2</desc>
<defs>
</defs>
<g transform="matrix(7.69 0 0 7.69 200 200)"  >
<path style="stroke: none; stroke-width: 1; stroke-dasharray: none; stroke-linecap: butt; stroke-dashoffset: 0; stroke-linejoin: miter; stroke-miterlimit: 4; fill: rgb(0,0,0); fill-rule: evenodd; opacity: 1;"  transform=" translate(-14, -14)" d="M 1 6.79308 C 1 3.59374 3.59335 1 6.79262 1 C 7.41739 1 8.02094 1.09928 8.58725 1.28367 C 9.31146 1.51948 9.7368 2.14815 9.84598 2.77482 M 9.84598 2.77482 L 10.5163 6.62056 L 10.8303 8.42048 L 11.0012 9.6232 C 11.0895 10.2419 10.8887 10.9564 10.295 11.4077 C 9.67945 11.8755 8.96643 12.2236 8.19115 12.416 C 8.90065 14.0582 9.91481 15.552 11.1806 16.8179 C 12.4471 18.0845 13.9416 19.0992 15.5847 19.8088 C 15.7769 19.0338 16.1247 18.321 16.5921 17.7056 C 17.0433 17.1115 17.7581 16.9105 18.377 16.9989 L 19.5781 17.1704 L 21.3765 17.4836 L 25.2253 18.1542 C 25.8521 18.2634 26.481 18.689 26.7167 19.4135 C 26.9008 19.9795 26.9999 20.5826 26.9999 21.2069 C 26.9999 24.4063 24.4066 27 21.2073 27 C 20.9504 27 20.6969 26.9832 20.448 26.9506 C 19.2876 26.907 18.135 26.7633 17.0028 26.5221 C 15.8025 26.2665 14.6252 25.9012 13.486 25.4292 C 11.0388 24.4155 8.81525 22.9296 6.94225 21.0564 C 5.06925 19.1832 3.58352 16.9594 2.56986 14.512 C 2.09799 13.3727 1.73272 12.1953 1.47706 10.995 C 1.23564 9.86147 1.09196 8.70747 1.04855 7.5457 C 1.01648 7.29893 1 7.04769 1 6.79308 M 21.0333 19.4539 L 19.2502 19.1434 L 18.1335 18.9844 C 17.8423 19.3863 17.6286 19.8467 17.513 20.3441 C 17.3943 20.855 17.0793 21.3016 16.6509 21.5786 C 16.2101 21.8635 15.6103 21.9859 15.0144 21.739 C 13.0518 20.926 11.2685 19.7343 9.76633 18.232 C 8.26419 16.7298 7.07264 14.9463 6.2597 12.9835 C 6.01321 12.3884 6.13542 11.7893 6.42002 11.3491 C 6.69664 10.9212 7.14275 10.6066 7.65323 10.4883 C 8.15165 10.3728 8.61299 10.1586 9.01567 9.86667 L 8.85065 8.71013 L 8.54604 6.96432 L 7.88274 3.15875 C 7.5386 3.05568 7.17295 3 6.79262 3 C 4.6981 3 3 4.69813 3 6.79308 C 3 6.97337 3.01251 7.15017 3.03656 7.32279 L 3.04372 7.37415 L 3.04553 7.42597 C 3.08256 8.48778 3.21258 9.54256 3.43319 10.5784 C 3.6635 11.6597 3.99256 12.7204 4.41765 13.7467 C 5.33081 15.9515 6.66924 17.9548 8.35653 19.6423 C 10.0438 21.3297 12.0469 22.6683 14.2515 23.5815 C 15.2777 24.0066 16.3382 24.3357 17.4195 24.566 C 18.4542 24.7865 19.5079 24.9165 20.5686 24.9536 L 20.621 24.9555 L 20.6729 24.9628 C 20.847 24.9873 21.0254 25 21.2073 25 C 23.3018 25 24.9999 23.3019 24.9999 21.2069 C 24.9999 20.8268 24.9443 20.4614 24.8414 20.1175 L 21.0333 19.4539 Z" stroke-linecap="round" />
</g>
</svg>