<svg width="50" height="50" viewBox="0 0 50 50" fill="none" xmlns="http://www.w3.org/2000/svg">
<circle cx="25" cy="25" r="24.5" stroke="#1B1B1B"/>
<g clip-path="url(#clip0_2085_12855)">
<path fill-rule="evenodd" clip-rule="evenodd" d="M24.0978 15.0609C22.1712 15.2494 20.3815 15.9633 18.8243 17.1643C18.3972 17.4937 17.4669 18.424 17.1374 18.8512C16.3045 19.9311 15.7057 21.1157 15.3656 22.3562C14.5188 25.4449 15.1567 28.6267 17.1374 31.1949C17.4669 31.6221 18.3972 32.5523 18.8243 32.8818C19.9043 33.7148 21.0888 34.3136 22.3294 34.6537C25.4181 35.5005 28.5999 34.8626 31.1681 32.8818C31.5953 32.5523 32.5255 31.6221 32.855 31.1949C34.0762 29.6116 34.7847 27.8153 34.9574 25.8644C34.9784 25.6273 34.9957 25.3409 34.9959 25.2281L34.9962 25.023H34.5326H34.069L34.0447 25.1695C34.0314 25.2501 34.02 25.4303 34.0194 25.5699C34.0169 26.1184 33.8301 27.1062 33.5908 27.8368C32.5924 30.8841 30.0009 33.2152 26.8901 33.8639C26.1774 34.0126 25.7446 34.0566 24.9962 34.0566C23.9809 34.0566 23.0987 33.9191 22.1844 33.6183C18.8345 32.5164 16.4639 29.6212 16.0102 26.0777C15.9491 25.6004 15.9491 24.4457 16.0102 23.9684C16.4188 20.7771 18.3855 18.089 21.2636 16.7878C22.4765 16.2394 23.6575 15.9884 25.0158 15.9902C26.7189 15.9924 28.3236 16.4421 29.7217 17.3091C30.5933 17.8495 30.9612 18.1735 32.3271 19.6031L33.4001 20.7262H31.8154H30.2306V21.2144V21.7027H32.6134H34.9962V19.3199V16.9371H34.5275H34.0587L34.0579 18.4898L34.057 20.0426L33.8552 19.8277C33.0061 18.9241 31.705 17.6071 31.4358 17.3786C30.0204 16.1777 28.3196 15.4149 26.4025 15.1213C25.9264 15.0484 24.5848 15.0132 24.0978 15.0609Z" fill="#1B1B1B"/>
</g>
<defs>
<clipPath id="clip0_2085_12855">
<rect width="20" height="20" fill="white" transform="translate(15 15)"/>
</clipPath>
</defs>
</svg>
