<svg width="24" height="25" viewBox="0 0 24 25" fill="none" xmlns="http://www.w3.org/2000/svg">
<path d="M3 2.5H5.35435L6.13913 6.0625M20.6576 16.75H8.49348L7.97029 14.375M6.13913 6.0625H21.05V12.3958L7.97029 14.375M6.13913 6.0625L7.97029 14.375" stroke="#BBBBBB" stroke-linecap="round"/>
<path d="M10.8481 22C11.7785 22 12.5252 21.2404 12.5252 20.3125C12.5252 19.3846 11.7785 18.625 10.8481 18.625C9.91769 18.625 9.1709 19.3846 9.1709 20.3125C9.1709 21.2404 9.91769 22 10.8481 22Z" stroke="#BBBBBB"/>
<path d="M18.6957 22C19.6261 22 20.3729 21.2404 20.3729 20.3125C20.3729 19.3846 19.6261 18.625 18.6957 18.625C17.7653 18.625 17.0186 19.3846 17.0186 20.3125C17.0186 21.2404 17.7653 22 18.6957 22Z" stroke="#BBBBBB"/>
</svg>
