<svg width="26" height="26" viewBox="0 0 26 26" fill="none" xmlns="http://www.w3.org/2000/svg">
<path d="M2.5 3C2.22386 3 2 3.22386 2 3.5C2 3.77614 2.22386 4 2.5 4V3ZM5.5 3.5L5.9889 3.39524L5.90421 3H5.5V3.5ZM8.5 17.5L8.0111 17.6048L8.09579 18H8.5V17.5ZM21.5 18C21.7761 18 22 17.7761 22 17.5C22 17.2239 21.7761 17 21.5 17V18ZM22.5 6.5H23V6H22.5V6.5ZM22.5 13.5L22.5687 13.9953L23 13.9355V13.5H22.5ZM8.07143 15.5L7.58253 15.6048L7.67988 16.0591L8.14008 15.9953L8.07143 15.5ZM6.14286 6.5V6H5.52436L5.65396 6.60476L6.14286 6.5ZM2.5 4H5.5V3H2.5V4ZM5.0111 3.60476L8.0111 17.6048L8.9889 17.3952L5.9889 3.39524L5.0111 3.60476ZM8.5 18H21.5V17H8.5V18ZM22 6.5V13.5H23V6.5H22ZM22.4313 13.0047L8.00278 15.0047L8.14008 15.9953L22.5687 13.9953L22.4313 13.0047ZM8.56033 15.3952L6.63176 6.39524L5.65396 6.60476L7.58253 15.6048L8.56033 15.3952ZM6.14286 7H22.5V6H6.14286V7Z" fill="#BBBBBB"/>
<circle cx="11" cy="21" r="1.5" stroke="#BBBBBB"/>
<circle cx="19" cy="21" r="1.5" stroke="#BBBBBB"/>
</svg>
