<svg width="26" height="26" viewBox="0 0 26 26" fill="none" xmlns="http://www.w3.org/2000/svg">
<path fill-rule="evenodd" clip-rule="evenodd" d="M13.2695 2.07463C13.0811 2.18947 13.0487 2.3378 13.0487 3.08437V3.74991L12.5871 3.79964C8.83124 4.20415 5.73586 6.98189 4.94947 10.6535C4.86289 11.0576 4.76086 11.7782 4.76086 11.9854C4.76086 12.0396 4.66587 12.0485 4.08257 12.0485C3.32058 12.0485 3.16668 12.0848 3.06087 12.2894C2.97971 12.4464 2.97971 12.5532 3.06087 12.7102C3.16668 12.9149 3.32058 12.9512 4.08257 12.9512C4.66587 12.9512 4.76086 12.96 4.76086 13.0143C4.76086 13.2214 4.86289 13.942 4.94947 14.3462C5.3003 15.9841 6.11349 17.4675 7.32331 18.6762C8.7674 20.119 10.5526 20.9741 12.5901 21.1991L13.0487 21.2497V21.9228C13.0487 22.679 13.0853 22.8335 13.2896 22.9391C13.4466 23.0203 13.5534 23.0203 13.7104 22.9391C13.9148 22.8334 13.9513 22.6792 13.9513 21.9209V21.2461L14.2693 21.218C17.0243 20.9743 19.5309 19.406 20.9903 17.0129C21.6407 15.9464 22.0556 14.7099 22.1991 13.4097L22.2498 12.9512H22.9228C23.6791 12.9512 23.8335 12.9146 23.9391 12.7102C24.0203 12.5532 24.0203 12.4464 23.9391 12.2894C23.8335 12.0851 23.6791 12.0485 22.9228 12.0485H22.2498L22.1991 11.59C21.7455 7.48216 18.5434 4.25831 14.4642 3.80247C14.2611 3.77978 14.0626 3.76107 14.0231 3.76086C13.9576 3.76058 13.9513 3.70076 13.9513 3.08224C13.9513 2.32024 13.915 2.16633 13.7104 2.06052C13.5465 1.97575 13.4252 1.97965 13.2695 2.07463ZM13.0487 5.30321C13.0487 6.07645 13.0842 6.21242 13.3145 6.32172C13.484 6.40214 13.516 6.40214 13.6855 6.32172C13.9154 6.21263 13.9513 6.07591 13.9513 5.30924V4.63422L14.1667 4.65162C15.8068 4.78426 17.4359 5.48423 18.7201 6.60799C19.851 7.59754 20.7326 9.03857 21.126 10.5403C21.2082 10.854 21.3189 11.5028 21.3501 11.8536L21.3674 12.0485H20.6915C19.9237 12.0485 19.7871 12.0843 19.678 12.3143C19.6424 12.3893 19.6133 12.4728 19.6133 12.4998C19.6133 12.5269 19.6424 12.6103 19.678 12.6854C19.7873 12.9157 19.9232 12.9512 20.6973 12.9512H21.3791L21.3603 13.0435C21.35 13.0943 21.3304 13.265 21.3169 13.423C21.3033 13.581 21.2452 13.9207 21.1878 14.1781C20.8528 15.6796 20.1409 16.9803 19.0616 18.0628C17.7506 19.3778 16.0195 20.1833 14.1462 20.35L13.9513 20.3674V19.6914C13.9513 18.9237 13.9155 18.7871 13.6855 18.6779C13.516 18.5975 13.484 18.5975 13.3145 18.6779C13.0843 18.7872 13.0487 18.9234 13.0487 19.6939V20.3723L12.9153 20.3552C12.842 20.3457 12.6189 20.3183 12.4195 20.2942C10.805 20.0992 9.15788 19.2787 7.93714 18.0615C6.61675 16.7451 5.81735 15.027 5.64991 13.146L5.63255 12.9512H6.30855C7.07628 12.9512 7.21286 12.9153 7.322 12.6854C7.40242 12.5158 7.40242 12.4838 7.322 12.3143C7.21286 12.0843 7.07628 12.0485 6.30855 12.0485H5.63255L5.64991 11.8536C5.81735 9.97261 6.61675 8.25458 7.93714 6.93811C9.20038 5.67858 10.7882 4.90391 12.5563 4.68452C12.7933 4.6551 13.001 4.62905 13.0179 4.62659C13.0348 4.62417 13.0487 4.92861 13.0487 5.30321ZM13.0014 8.14975C11.4846 8.34107 10.1955 9.27782 9.54059 10.6644C8.75206 12.334 9.1205 14.3344 10.4542 15.6249C11.7721 16.9 13.7031 17.2331 15.3248 16.4648C16.3015 16.0022 17.0024 15.3029 17.4594 14.3352C18.5228 12.0836 17.4661 9.41317 15.1277 8.44303C14.5238 8.19246 13.6347 8.06983 13.0014 8.14975ZM14.1985 9.0705C15.1056 9.2628 15.8892 9.79479 16.4081 10.5707C16.8067 11.1666 16.988 11.7767 16.9868 12.5176C16.9847 13.7004 16.4245 14.7376 15.4249 15.4096C15.0421 15.667 14.5338 15.8729 14.0909 15.95C13.9295 15.9781 13.6106 15.9897 13.3194 15.9779C12.7217 15.9539 12.235 15.8098 11.7164 15.5035C11.3266 15.2733 10.7965 14.7648 10.5527 14.3872C10.3533 14.0783 10.152 13.5819 10.0707 13.1983C9.99786 12.8546 9.99786 12.145 10.0707 11.8013C10.3601 10.4362 11.4161 9.37354 12.782 9.073C13.1088 9.00112 13.8648 8.99976 14.1985 9.0705Z" fill="#BBBBBB"/>
</svg>
