<svg width="26" height="26" viewBox="0 0 26 26" fill="none" xmlns="http://www.w3.org/2000/svg">
<path fill-rule="evenodd" clip-rule="evenodd" d="M8.02025 5.03747C7.74735 5.10628 7.47146 5.26083 7.18926 5.50304C6.87634 5.7716 5.75004 6.91192 5.56671 7.14582C4.82365 8.09372 4.81117 9.56772 5.53008 11.4683C6.40837 13.7901 8.05381 16.1438 10.1346 18.0548C13.0042 20.6903 16.8442 22.3982 18.8241 21.9197C19.1173 21.8489 19.6048 21.6223 19.8288 21.4529C20.0537 21.2829 21.5628 19.7401 21.7029 19.5371C21.9619 19.1617 22.0618 18.6594 21.9618 18.2356C21.8499 17.7618 21.813 17.7165 20.3602 16.2688C18.8953 14.8092 18.8504 14.7732 18.3653 14.6713C17.9834 14.5909 17.5931 14.6617 17.2156 14.8798C17.1275 14.9306 16.7145 15.3077 16.2976 15.7177L15.5397 16.4632L15.2969 16.3374C14.7005 16.0285 14.2605 15.7317 13.6031 15.195C12.9279 14.6439 11.987 13.6749 11.4675 12.9959C11.0922 12.5053 10.5364 11.5989 10.5348 11.4748C10.5345 11.451 10.7943 11.1789 11.1122 10.87C11.7783 10.2227 12.0423 9.91994 12.1911 9.63267C12.3791 9.26968 12.4151 8.81259 12.2856 8.43258C12.1541 8.04649 12.0299 7.90025 10.7542 6.6294C9.49296 5.37308 9.29946 5.20792 8.9414 5.08208C8.68939 4.99353 8.2744 4.97343 8.02025 5.03747ZM8.7929 5.9692C8.8877 6.02321 9.41947 6.52716 10.1368 7.24277C11.4356 8.53858 11.4839 8.59957 11.4822 8.94219C11.4807 9.24611 11.4023 9.35108 10.5302 10.2172C10.091 10.6533 9.70798 11.0557 9.67913 11.1113C9.64157 11.1837 9.63032 11.2772 9.63953 11.44C9.65104 11.6427 9.67749 11.7171 9.8813 12.12C10.3414 13.0294 10.948 13.8306 11.9514 14.8543C12.9502 15.8734 13.944 16.6317 14.9667 17.1554C15.3322 17.3425 15.4013 17.3667 15.5672 17.3657C15.6813 17.365 15.8002 17.3409 15.8714 17.3041C15.9356 17.2708 16.3484 16.8874 16.7888 16.452C17.3573 15.8899 17.633 15.6406 17.7395 15.5925C17.9395 15.5021 18.2003 15.5024 18.3828 15.5932C18.5848 15.6937 20.9405 18.0386 21.0459 18.2441C21.1032 18.3558 21.1251 18.4534 21.1251 18.5978C21.1251 18.9386 21.0559 19.0326 20.108 19.9804C19.1693 20.919 19.0821 20.9826 18.5822 21.0934C18.1008 21.2001 17.29 21.1152 16.4682 20.8719C15.2187 20.502 13.5355 19.6168 12.152 18.602C9.48542 16.6458 7.19716 13.6602 6.24712 10.8973C5.7956 9.58424 5.74547 8.64321 6.08981 7.94505C6.19946 7.72272 6.29699 7.61071 6.99152 6.9093C7.41982 6.47671 7.82848 6.0826 7.89963 6.03348C8.19794 5.82747 8.50529 5.80537 8.7929 5.9692Z" fill="#BBBBBB"/>
</svg>
