<svg width="30" height="30" viewBox="0 0 30 30" fill="none" xmlns="http://www.w3.org/2000/svg">
<path fill-rule="evenodd" clip-rule="evenodd" d="M13.5567 0.0949462C9.79742 0.485591 6.46274 2.16266 3.89358 4.95459C0.273187 8.88899 -0.93988 14.5894 0.751429 19.7202C1.51813 22.0462 2.73371 23.993 4.50951 25.739C6.862 28.0521 9.72266 29.439 13.1459 29.9264C13.842 30.0255 16.1439 30.0238 16.8666 29.9238C20.3032 29.4481 23.2614 27.9807 25.6399 25.5721C28.0065 23.1755 29.3931 20.336 29.8853 16.8784C29.9834 16.1891 29.9834 13.8763 29.8853 13.187C29.6045 11.2145 29.0284 9.43385 28.1602 7.85499C27.4749 6.60864 26.6747 5.54118 25.6399 4.49334C23.3047 2.12856 20.4061 0.667173 17.0717 0.173462C16.353 0.066997 14.2726 0.0205907 13.5567 0.0949462ZM21.9916 9.13942C22.2502 9.24752 22.3745 9.49584 22.3745 9.90495C22.3745 10.2799 19.8978 22.0454 19.7647 22.3029C19.5769 22.666 19.1759 22.8038 18.7634 22.647C18.6261 22.5948 17.2709 21.619 15.2916 20.147L14.8005 19.7819L13.7352 20.7986C12.9591 21.5394 12.6181 21.8268 12.479 21.8574C12.3739 21.8805 12.2747 21.8861 12.2586 21.87C12.2424 21.8538 12.2857 21.001 12.3548 19.9748L12.4804 18.1089L12.8918 17.728C13.118 17.5186 14.7048 16.0804 16.4179 14.532C18.131 12.9837 19.5327 11.6785 19.5327 11.6316C19.5327 11.5721 19.4703 11.5481 19.3252 11.552C19.1575 11.5565 18.288 12.0802 14.7773 14.2912C12.39 15.7947 10.4064 17.0249 10.3694 17.0249C10.2076 17.0249 6.51348 15.8374 6.33817 15.7291C5.9641 15.4979 6.04367 15.1472 6.53229 14.874C6.65955 14.8029 7.59324 14.4248 8.60715 14.0338C9.62106 13.6429 11.5317 12.9061 12.853 12.3966C14.1743 11.8872 16.5341 10.9763 18.0971 10.3726C21.5236 9.04907 21.4914 9.0609 21.6586 9.05827C21.7321 9.05709 21.882 9.09366 21.9916 9.13942Z" fill="#1B1B1B"/>
</svg>
