<svg width="20" height="20" viewBox="0 0 20 20" fill="none" xmlns="http://www.w3.org/2000/svg">
<path fill-rule="evenodd" clip-rule="evenodd" d="M9.88281 0.644949C7.85383 0.827215 5.99535 1.60155 4.49219 2.891C2.9584 4.20676 1.88469 6.00457 1.45824 7.97117C1.40816 8.20207 1.3584 8.39039 1.34766 8.38969C1.33691 8.38898 1.2666 8.2982 1.19141 8.18797C0.990781 7.89387 0.879336 7.8248 0.605469 7.8248C0.226406 7.8248 0 8.0502 0 8.4275V8.65332L0.682227 9.6782C1.05742 10.2419 1.41391 10.7447 1.47438 10.7956C1.60535 10.9058 1.80086 10.949 2.00195 10.9121C2.12754 10.8891 2.28047 10.7533 3.0732 9.96051C4.07047 8.96324 4.08824 8.93781 4.02453 8.5982C3.98848 8.40594 3.7548 8.17227 3.56254 8.13621C3.2925 8.08555 3.15133 8.14297 2.8641 8.42023C2.70477 8.57406 2.59766 8.65277 2.59766 8.61602C2.59766 8.48215 2.86965 7.49 3.0073 7.12168C4.21887 3.88018 7.45813 1.73428 10.918 1.88112C14.9948 2.05417 18.2373 5.10391 18.6908 9.19199C18.8078 10.2459 18.6654 11.4899 18.3041 12.5704C17.2887 15.6073 14.6019 17.7477 11.3923 18.0764C8.66613 18.3555 6.09848 17.2856 4.41266 15.168C4.21664 14.9218 4.06551 14.7702 3.98066 14.7348C3.50918 14.5378 3.02695 14.9331 3.12184 15.4387C3.17105 15.7012 3.95125 16.6135 4.61012 17.1791C5.54906 17.9851 6.555 18.5545 7.68609 18.9202C8.57039 19.2061 9.22937 19.3202 10.1953 19.3548C12.289 19.4298 14.2266 18.875 15.9053 17.7199C17.362 16.7175 18.5154 15.3207 19.1958 13.7351C20.1288 11.5607 20.2292 9.25356 19.4878 7.02691C18.3096 3.48843 15.1723 1.00386 11.4453 0.657723C11.0414 0.620223 10.2317 0.613582 9.88281 0.644949ZM10.0391 4.10824C9.89437 4.17523 9.76465 4.31305 9.70965 4.4582C9.68148 4.53254 9.66797 5.51656 9.66797 7.49453C9.66797 10.0754 9.67527 10.4392 9.72992 10.5757C9.78488 10.7131 10.0176 10.8998 11.7875 12.227L13.783 13.7232H14.0078C14.2598 13.7232 14.3908 13.6514 14.541 13.4307C14.654 13.2646 14.6588 12.9914 14.5517 12.8158C14.4638 12.6718 14.5314 12.7253 12.4805 11.1736L10.9375 10.0063L10.918 7.22891C10.8988 4.50023 10.897 4.44969 10.8179 4.34371C10.7736 4.28441 10.6914 4.20156 10.6353 4.15965C10.5058 4.06301 10.1947 4.03617 10.0391 4.10824Z" fill="#1B1B1B"/>
</svg>
