<svg width="232" height="95" viewBox="0 0 232 95" fill="none" xmlns="http://www.w3.org/2000/svg">
<path fill-rule="evenodd" clip-rule="evenodd" d="M107 14L115.5 2L124.5 14H231V94H1V14H107Z" fill="#F4F5F6"/>
<path d="M115.5 2L116.3 1.4L115.477 0.302546L114.684 1.42198L115.5 2ZM107 14V15H107.517L107.816 14.578L107 14ZM124.5 14L123.7 14.6L124 15H124.5V14ZM231 14H232V13H231V14ZM231 94V95H232V94H231ZM1 94H0V95H1V94ZM1 14V13H0V14H1ZM114.684 1.42198L106.184 13.422L107.816 14.578L116.316 2.57802L114.684 1.42198ZM125.3 13.4L116.3 1.4L114.7 2.6L123.7 14.6L125.3 13.4ZM124.5 15H231V13H124.5V15ZM230 14V94H232V14H230ZM231 93H1V95H231V93ZM2 94V14H0V94H2ZM1 15H107V13H1V15Z" fill="#F4F5F6"/>
</svg>
