<svg width="30" height="30" viewBox="0 0 30 30" fill="none" xmlns="http://www.w3.org/2000/svg">
<g clip-path="url(#clip0_3906_18289)">
<path fill-rule="evenodd" clip-rule="evenodd" d="M13.6478 0.0347905C5.79153 0.793111 -0.185735 7.54839 0.0662767 15.3842C0.139519 17.6632 0.632644 19.6364 1.6319 21.6494C3.09176 24.5903 5.42391 26.9222 8.37077 28.3875C13.1479 30.7629 18.7935 30.4363 23.2492 27.5267C24.9914 26.3891 26.6425 24.7025 27.7697 22.9092C28.1981 22.2276 28.8449 20.9025 29.1387 20.1049C29.4347 19.3009 29.7799 17.9058 29.9079 16.9956C30.0376 16.0736 30.0551 13.9407 29.9397 13.1284C29.5938 10.6952 28.8222 8.62364 27.5411 6.68899C26.9963 5.86622 26.4522 5.20241 25.6942 4.43571C23.3572 2.07204 20.4502 0.60608 17.1262 0.115005C16.4094 0.0091264 14.395 -0.0373384 13.6478 0.0347905ZM16.6282 7.64231C19.1881 8.23299 21.2046 10.0183 22.0638 12.4546C22.3783 13.3462 22.4574 13.8459 22.4534 14.9155C22.4504 15.7406 22.4276 15.9775 22.2983 16.5317C21.6137 19.4658 19.3683 21.6333 16.4044 22.2211C16.0623 22.289 15.6079 22.3224 15.0168 22.3232C13.9705 22.3247 13.2488 22.1899 12.3086 21.8176L11.7098 21.5805L9.81839 22.0283C8.77811 22.2746 7.89464 22.4757 7.85509 22.4751C7.81553 22.4746 7.74475 22.4148 7.69776 22.3423C7.6203 22.2227 7.64995 22.0291 8.01587 20.2646L8.4194 18.3189L8.18327 17.7539C7.79046 16.8138 7.64257 16.0502 7.63923 14.9448C7.63518 13.6008 7.83698 12.7323 8.42983 11.5425C9.41983 9.55575 11.3804 8.05797 13.552 7.62965C14.2853 7.48504 14.321 7.48241 15.2512 7.50555C15.8465 7.52032 16.2908 7.56444 16.6282 7.64231ZM14.0115 9.19786C12.1101 9.55903 10.4279 10.8954 9.71303 12.6126C9.35538 13.4717 9.28337 13.8536 9.2788 14.9155C9.27387 16.062 9.37055 16.5118 9.82876 17.4742L10.1125 18.0699L9.88208 19.1713C9.7554 19.777 9.65919 20.3017 9.66827 20.3372C9.67905 20.3794 10.0748 20.3106 10.8103 20.1388L11.9357 19.876L12.5095 20.1452C13.4536 20.5882 13.91 20.6854 15.0461 20.685C15.8714 20.6849 16.0859 20.6651 16.511 20.5499C18.2167 20.088 19.5778 18.9442 20.3289 17.3415C20.726 16.494 20.8089 16.0838 20.8136 14.9448C20.8171 14.077 20.8001 13.8845 20.6817 13.4506C20.1168 11.3814 18.5568 9.83963 16.4626 9.28059C15.8832 9.1259 14.6153 9.08313 14.0115 9.19786ZM12.8722 11.4375C13.0073 11.5321 13.2537 12.0169 13.588 12.8457C13.7818 13.3264 13.7715 13.3945 13.4381 13.8312C13.1481 14.2111 13.1554 14.4275 13.4723 14.8382C14.0474 15.5836 15.5542 16.7905 15.9099 16.7905C16.1078 16.7905 16.2618 16.6985 16.61 16.3723C16.7773 16.2156 16.9618 16.0874 17.0203 16.0874C17.0786 16.0874 17.4955 16.1924 17.9466 16.3206C18.5797 16.5007 18.7969 16.5883 18.8987 16.7048C19.1064 16.9424 19.0725 17.1893 18.7772 17.5904C18.2439 18.3148 17.8589 18.5166 17.009 18.517C16.3093 18.5173 15.7952 18.3786 15.0638 17.9921C14.3769 17.6291 13.8746 17.2547 13.1769 16.5854C11.9166 15.3765 11.2951 14.2442 11.2967 13.16C11.2976 12.562 11.6525 11.9149 12.2006 11.5118C12.4622 11.3194 12.6707 11.2963 12.8722 11.4375Z" fill="#1B1B1B"/>
</g>
<defs>
<clipPath id="clip0_3906_18289">
<rect width="30" height="30" fill="white"/>
</clipPath>
</defs>
</svg>
