<svg width="26" height="26" viewBox="0 0 26 26" fill="none" xmlns="http://www.w3.org/2000/svg">
<path d="M8.50492 21.665L8.75504 21.2321L8.56024 21.1195L8.34681 21.1907L8.50492 21.665ZM3 23.5L2.52211 23.353L2.23638 24.2816L3.15811 23.9743L3 23.5ZM4.74357 17.8334L5.22146 17.9804L5.28395 17.7773L5.18109 17.5914L4.74357 17.8334ZM10.3512 8.03043L10.194 7.55579L10.1939 7.55581L10.3512 8.03043ZM9.22384 9.01962L9.67367 9.23793L9.67367 9.23792L9.22384 9.01962ZM10.7174 8.00117L10.7334 7.50142L10.7333 7.50142L10.7174 8.00117ZM11.4069 8.26256L11.0719 8.63373L11.0721 8.63384L11.4069 8.26256ZM12.1145 9.21084L12.5242 8.92417L12.5242 8.92416L12.1145 9.21084ZM12.7595 10.235L13.2372 10.0873L13.2372 10.0873L12.7595 10.235ZM12.7604 10.8968L13.2381 11.0445L13.2381 11.0445L12.7604 10.8968ZM12.1706 11.6056L12.4577 12.015L12.4577 12.015L12.1706 11.6056ZM12.2511 12.3824L11.858 12.6914L11.858 12.6914L12.2511 12.3824ZM14.5347 14.6784L14.8469 14.2878L14.8469 14.2878L14.5347 14.6784ZM15.362 14.8798L15.7707 15.168L15.7707 15.1679L15.362 14.8798ZM15.6107 14.5449L15.9875 14.8735L15.9876 14.8734L15.6107 14.5449ZM17.7944 14.8843L18.0806 14.4744L18.0806 14.4744L17.7944 14.8843ZM18.7437 15.5911L18.3728 15.9264L18.373 15.9266L18.7437 15.5911ZM18.9258 15.8684L19.3784 15.6559L19.3783 15.6559L18.9258 15.8684ZM18.8966 16.8337L18.4455 16.618L18.4455 16.618L18.8966 16.8337ZM17.5491 17.9449L17.6818 18.427L17.6818 18.427L17.5491 17.9449ZM15.9901 17.9326L15.881 18.4205L15.881 18.4205L15.9901 17.9326ZM9.06504 11.0299L9.5536 10.9236L9.5536 10.9236L9.06504 11.0299ZM9.00004 10.1874L8.50004 10.1884V10.1884L9.00004 10.1874ZM13.5 23.5C19.299 23.5 24 18.799 24 13H23C23 18.2467 18.7467 22.5 13.5 22.5V23.5ZM8.25481 22.098C9.79856 22.9898 11.5905 23.5 13.5 23.5V22.5C11.7707 22.5 10.1508 22.0384 8.75504 21.2321L8.25481 22.098ZM3.15811 23.9743L8.66304 22.1394L8.34681 21.1907L2.84189 23.0257L3.15811 23.9743ZM4.26568 17.6864L2.52211 23.353L3.47789 23.647L5.22146 17.9804L4.26568 17.6864ZM3 13C3 14.8399 3.47365 16.5706 4.30605 18.0754L5.18109 17.5914C4.42856 16.231 4 14.6663 4 13H3ZM13.5 2.5C7.70101 2.5 3 7.20101 3 13H4C4 7.75329 8.25329 3.5 13.5 3.5V2.5ZM24 13C24 7.20101 19.299 2.5 13.5 2.5V3.5C18.7467 3.5 23 7.75329 23 13H24ZM10.1939 7.55581C9.57914 7.7595 9.05713 8.21795 8.77401 8.80132L9.67367 9.23792C9.83939 8.89644 10.1509 8.62352 10.5085 8.50506L10.1939 7.55581ZM10.7333 7.50142C10.5692 7.49621 10.3533 7.50304 10.194 7.55579L10.5084 8.50508C10.493 8.51018 10.4876 8.51035 10.4978 8.50866C10.5062 8.50726 10.5207 8.50536 10.5415 8.50369C10.5834 8.50035 10.6387 8.49892 10.7016 8.50092L10.7333 7.50142ZM11.742 7.89139C11.4475 7.62559 11.132 7.51414 10.7334 7.50142L10.7015 8.50091C10.8939 8.50705 10.9743 8.54559 11.0719 8.63373L11.742 7.89139ZM12.5242 8.92416C12.36 8.68954 12.1965 8.46309 12.0648 8.28652C11.9991 8.19849 11.9397 8.12073 11.8912 8.05968C11.8542 8.01317 11.7952 7.93944 11.7418 7.89128L11.0721 8.63384C11.0515 8.61529 11.0569 8.6171 11.1082 8.68171C11.148 8.73178 11.2007 8.8007 11.2633 8.88454C11.388 9.05173 11.5455 9.26981 11.7049 9.49751L12.5242 8.92416ZM13.2372 10.0873C13.1945 9.94904 13.1247 9.81956 13.0222 9.65685C12.919 9.49308 12.7625 9.26471 12.5242 8.92417L11.7049 9.4975C11.9449 9.8406 12.0878 10.0497 12.176 10.1898C12.2649 10.3309 12.2784 10.3717 12.2818 10.3827L13.2372 10.0873ZM13.2381 11.0445C13.3392 10.7175 13.3383 10.4144 13.2372 10.0873L12.2818 10.3827C12.324 10.5192 12.3237 10.6164 12.2827 10.7491L13.2381 11.0445ZM12.4577 12.015C12.6512 11.8793 12.818 11.7437 12.9511 11.5838C13.0914 11.4152 13.1778 11.2396 13.2381 11.0445L12.2827 10.7491C12.2549 10.8392 12.2254 10.8925 12.1824 10.9442C12.1321 11.0046 12.0481 11.0808 11.8835 11.1963L12.4577 12.015ZM12.3584 11.8366C12.3584 11.8908 12.3496 11.9355 12.3411 11.9668C12.3325 11.9986 12.3222 12.0245 12.3138 12.043C12.2975 12.0788 12.2803 12.1052 12.2706 12.1194C12.251 12.1477 12.233 12.1674 12.2263 12.1746C12.2111 12.191 12.1987 12.2019 12.1967 12.2037C12.1902 12.2094 12.1877 12.2112 12.1934 12.2067C12.2029 12.1992 12.2207 12.1856 12.2475 12.1658C12.2998 12.1271 12.3743 12.0735 12.4577 12.015L11.8835 11.1963C11.7953 11.2582 11.7136 11.3168 11.6527 11.3619C11.6229 11.3839 11.5949 11.4051 11.5727 11.4227C11.5625 11.4307 11.5477 11.4427 11.5328 11.4558C11.5267 11.4612 11.5111 11.4752 11.4937 11.4939C11.486 11.5022 11.4671 11.5229 11.4471 11.5521C11.437 11.5666 11.4197 11.5933 11.4033 11.6295C11.3897 11.6594 11.3584 11.7347 11.3584 11.8366H12.3584ZM12.6442 12.0734C12.5855 11.9987 12.4921 11.8727 12.4118 11.7611C12.372 11.7058 12.3376 11.6571 12.3141 11.6227C12.3019 11.6049 12.2952 11.5946 12.2926 11.5906C12.2908 11.5877 12.2942 11.5929 12.2995 11.6025C12.3017 11.6065 12.3091 11.62 12.3172 11.6386C12.3213 11.6478 12.3288 11.6657 12.3361 11.6892C12.3409 11.7048 12.3584 11.7614 12.3584 11.8366H11.3584C11.3584 11.9123 11.376 11.9695 11.3811 11.9859C11.3887 12.0102 11.3966 12.0291 11.4011 12.0395C11.4103 12.0604 11.4191 12.0768 11.4233 12.0844C11.4325 12.1011 11.4416 12.1158 11.4472 12.1247C11.4595 12.1442 11.4743 12.1663 11.4888 12.1874C11.5186 12.2309 11.558 12.2867 11.6001 12.3451C11.6836 12.4612 11.7865 12.6004 11.858 12.6914L12.6442 12.0734ZM14.8469 14.2878C14.1123 13.7009 13.211 12.7945 12.6442 12.0734L11.858 12.6914C12.4734 13.4742 13.4294 14.4352 14.2226 15.0691L14.8469 14.2878ZM15.1661 14.6401C15.2288 14.6401 15.2768 14.6522 15.2963 14.6575C15.3201 14.664 15.3386 14.671 15.3491 14.6752C15.37 14.6836 15.3851 14.6914 15.3904 14.6942C15.4022 14.7004 15.4087 14.7046 15.4062 14.703C15.4028 14.7009 15.3925 14.6942 15.3733 14.681C15.3364 14.6557 15.2836 14.6181 15.2219 14.5729C15.0984 14.4826 14.9518 14.3717 14.8469 14.2878L14.2226 15.0691C14.342 15.1644 14.5006 15.2843 14.6316 15.3801C14.6971 15.428 14.7587 15.4721 14.8072 15.5054C14.8306 15.5215 14.8556 15.5382 14.8782 15.5523C14.8886 15.5588 14.9058 15.5692 14.9256 15.5796C14.935 15.5845 14.9534 15.594 14.977 15.6034C14.9809 15.605 15.0606 15.6401 15.1661 15.6401V14.6401ZM14.9534 14.5917C14.905 14.6603 14.8609 14.721 14.8293 14.7629C14.813 14.7846 14.8028 14.7976 14.7982 14.8032C14.7951 14.8071 14.799 14.8019 14.8073 14.7931C14.8103 14.7899 14.8237 14.7756 14.8435 14.7586C14.8526 14.7508 14.8748 14.7324 14.9062 14.7131C14.9223 14.7033 14.9493 14.688 14.985 14.6741C15.0175 14.6615 15.0819 14.6401 15.1661 14.6401V15.6401C15.3138 15.6401 15.416 15.5736 15.4277 15.5665C15.4599 15.5468 15.4829 15.5276 15.4931 15.5189C15.515 15.5002 15.531 15.4832 15.5373 15.4766C15.5521 15.4607 15.5649 15.4454 15.5725 15.436C15.5896 15.4152 15.609 15.3899 15.6282 15.3644C15.6677 15.312 15.7181 15.2425 15.7707 15.168L14.9534 14.5917ZM15.2338 14.2162C15.178 14.2803 15.0511 14.4532 14.9534 14.5917L15.7707 15.1679C15.8189 15.0996 15.8697 15.0294 15.9123 14.9721C15.9336 14.9434 15.952 14.9189 15.9666 14.9C15.9831 14.8787 15.9891 14.8717 15.9875 14.8735L15.2338 14.2162ZM16.4363 13.6834C16.2086 13.6834 15.9781 13.7434 15.7815 13.8295C15.5864 13.9149 15.3842 14.0437 15.2337 14.2164L15.9876 14.8734C16.0152 14.8417 16.0815 14.7898 16.1826 14.7455C16.2821 14.7019 16.3755 14.6834 16.4363 14.6834V13.6834ZM18.0806 14.4744C17.6379 14.1653 17.3478 13.9676 17.1251 13.8527C16.8597 13.7157 16.6662 13.6834 16.4363 13.6834V14.6834C16.5255 14.6834 16.5588 14.6857 16.6665 14.7413C16.8169 14.819 17.0463 14.9718 17.5081 15.2943L18.0806 14.4744ZM19.1146 15.2558C19.0664 15.2024 18.9926 15.1435 18.9461 15.1066C18.8849 15.0582 18.8071 14.9988 18.719 14.9332C18.5422 14.8016 18.3155 14.6384 18.0806 14.4744L17.5081 15.2943C17.7361 15.4534 17.9544 15.6108 18.1218 15.7354C18.2058 15.7979 18.2748 15.8505 18.3249 15.8903C18.3896 15.9415 18.3914 15.9469 18.3728 15.9264L19.1146 15.2558ZM19.3783 15.6559C19.3183 15.5281 19.2098 15.361 19.1145 15.2556L18.373 15.9266C18.3962 15.9523 18.4515 16.0348 18.4732 16.081L19.3783 15.6559ZM19.5 16.322C19.5 16.1971 19.4988 16.0788 19.4809 15.9691C19.4597 15.8396 19.4193 15.7431 19.3784 15.6559L18.4732 16.0809C18.4867 16.1098 18.4912 16.1214 18.4929 16.1263C18.4936 16.1282 18.4936 16.128 18.494 16.1306C18.4948 16.1357 18.4967 16.1497 18.498 16.1819C18.4994 16.2148 18.5 16.2583 18.5 16.322H19.5ZM19.3477 17.0494C19.3934 16.9539 19.4478 16.8423 19.4754 16.7052C19.5009 16.5794 19.5 16.4486 19.5 16.322H18.5C18.5 16.394 18.4996 16.4377 18.4982 16.4701C18.4969 16.5002 18.4951 16.5081 18.4952 16.5073C18.4959 16.5039 18.4986 16.507 18.4455 16.618L19.3477 17.0494ZM17.6818 18.427C18.4377 18.219 19.0136 17.7483 19.3477 17.0494L18.4455 16.618C18.2409 17.0461 17.903 17.3289 17.4165 17.4628L17.6818 18.427ZM15.881 18.4205C16.1223 18.4745 16.4837 18.4973 16.7992 18.4998C17.1027 18.5022 17.4634 18.4871 17.6818 18.427L17.4165 17.4628C17.3486 17.4815 17.1175 17.5023 16.8071 17.4998C16.5085 17.4974 16.2336 17.4747 16.0993 17.4446L15.881 18.4205ZM8.57647 11.1363C8.9235 12.7309 9.97473 14.3714 11.2967 15.6891C12.6193 17.0073 14.2707 18.0603 15.881 18.4205L16.0993 17.4446C14.7281 17.1379 13.2372 16.2113 12.0027 14.9808C10.7677 13.7498 9.84715 12.2725 9.5536 10.9236L8.57647 11.1363ZM8.50004 10.1884C8.50097 10.6626 8.51123 10.8365 8.57648 11.1363L9.5536 10.9236C9.511 10.7279 9.50092 10.6377 9.50004 10.1865L8.50004 10.1884ZM8.77402 8.80132C8.6696 9.01647 8.58865 9.1998 8.54477 9.42874C8.50352 9.64398 8.49945 9.87859 8.50004 10.1884L9.50004 10.1865C9.49943 9.86548 9.50638 9.72402 9.5269 9.61697C9.54479 9.52363 9.57634 9.43847 9.67367 9.23793L8.77402 8.80132Z" fill="#BBBBBB"/>
</svg>
