<svg width="26" height="26" viewBox="0 0 26 26" fill="none" xmlns="http://www.w3.org/2000/svg">
<path fill-rule="evenodd" clip-rule="evenodd" d="M12.7762 5.02008C9.55719 5.33084 6.77074 7.46423 5.63917 10.4844C5.0383 12.0881 4.94639 13.9409 5.3849 15.6115C5.48995 16.0119 5.73287 16.6864 5.86785 16.9527C5.91452 17.0447 5.9527 17.1566 5.9527 17.2011C5.9527 17.2457 5.73683 18.3422 5.47302 19.6377C5.20917 20.9332 4.99632 21.9963 5.00005 22C5.00374 22.0036 6.09151 21.785 7.41731 21.514L9.82785 21.0214L9.99058 21.1031C10.4965 21.3571 11.4246 21.653 12.0401 21.7565C12.8001 21.8842 13.8065 21.9203 14.4714 21.8437C17.1379 21.5366 19.4397 20.0544 20.8222 17.7542C21.3942 16.8027 21.7604 15.7617 21.9416 14.5721C22.0199 14.0581 22.0194 12.8526 21.9407 12.3175C21.7984 11.3501 21.556 10.5661 21.1389 9.72393C19.88 7.18189 17.5692 5.50255 14.7342 5.06942C14.3176 5.00578 13.2128 4.97795 12.7762 5.02008ZM14.6206 5.86638C17.4002 6.26653 19.734 8.14211 20.7212 10.7691C21.7262 13.4437 21.1478 16.4479 19.2187 18.5724C18.5835 19.272 17.8515 19.8301 17.0127 20.2543C15.8099 20.8627 14.6827 21.1106 13.3054 21.0699C12.1874 21.0368 11.3063 20.8252 10.2769 20.3427L9.92764 20.179L7.98175 20.5752C6.91151 20.7932 6.0332 20.9693 6.02994 20.9667C6.02665 20.9641 6.20268 20.0868 6.42108 19.0172L6.81818 17.0724L6.63732 16.69C6.3347 16.0502 6.10352 15.2949 5.98081 14.5453C5.91305 14.1313 5.92313 12.6718 5.99664 12.251C6.1583 11.3256 6.44809 10.4869 6.85832 9.75718C8.14963 7.46 10.3731 6.03739 13.0377 5.80357C13.3302 5.7779 14.2631 5.81491 14.6206 5.86638ZM10.286 8.70718C10.0314 8.7939 9.86228 8.91596 9.54086 9.24488C9.10338 9.69257 8.8879 10.0626 8.77571 10.5587C8.71284 10.8368 8.72452 11.9137 8.79553 12.384C9.25333 15.4166 11.5946 17.7566 14.6177 18.2029C15.0889 18.2725 16.137 18.2846 16.4139 18.2237C16.7047 18.1598 17.0158 18.0301 17.2622 17.8701C17.5736 17.6677 18.1374 17.0805 18.2442 16.8472C18.4246 16.4533 18.4192 16.0277 18.229 15.6427C18.1499 15.4827 17.9962 15.3098 17.4551 14.7718C16.8625 14.1827 16.7516 14.0873 16.5496 13.9929C16.37 13.909 16.2618 13.8819 16.0588 13.8702C15.6335 13.8456 15.3358 13.9571 14.967 14.2792C14.8481 14.3832 14.6976 14.4955 14.6327 14.529C14.3573 14.6708 13.9792 14.6691 13.6751 14.5246C13.4833 14.4335 12.5783 13.5422 12.4796 13.3472C12.3298 13.0512 12.3254 12.6552 12.4687 12.3744C12.5062 12.3009 12.6212 12.1459 12.7242 12.0298C13.0588 11.6528 13.1874 11.2695 13.1296 10.8212C13.08 10.4358 12.9759 10.2895 12.2164 9.53716C11.8357 9.16009 11.4741 8.82599 11.4128 8.7947C11.0977 8.63393 10.6118 8.59616 10.286 8.70718ZM10.9349 9.45915C11.0696 9.51485 12.2091 10.6225 12.2916 10.778C12.3462 10.8809 12.3543 11.1264 12.3072 11.2503C12.2896 11.2966 12.1931 11.4237 12.0929 11.5327C11.719 11.9392 11.563 12.3209 11.5614 12.8329C11.5593 13.4865 11.7318 13.8019 12.5167 14.5788C12.9708 15.0284 13.0931 15.1305 13.3038 15.2362C13.5606 15.3649 13.9178 15.4586 14.1521 15.4586C14.564 15.4586 15.0942 15.2466 15.4251 14.9496C15.5398 14.8467 15.6775 14.7398 15.7311 14.7121C15.8442 14.6536 16.0528 14.6465 16.1873 14.6965C16.2978 14.7377 17.4429 15.8646 17.5177 16.0058C17.5835 16.13 17.5839 16.3841 17.5185 16.5105C17.4906 16.5645 17.3408 16.7304 17.1856 16.8793C16.6514 17.392 16.3922 17.4763 15.4512 17.4431C14.4731 17.4087 13.8339 17.2614 12.9934 16.8769C12.0137 16.4288 11.0379 15.5569 10.443 14.5981C9.83204 13.6134 9.54512 12.5808 9.54512 11.367C9.54512 10.5302 9.64371 10.2728 10.1631 9.75362C10.5044 9.4125 10.6695 9.34946 10.9349 9.45915Z" fill="#BBBBBB"/>
</svg>
