<svg width="148" height="45" viewBox="0 0 148 45" fill="none" xmlns="http://www.w3.org/2000/svg">
<path fill-rule="evenodd" clip-rule="evenodd" d="M41.3982 0.130812C36.2116 0.904438 32.8917 2.29021 29.3712 5.15066C26.9049 7.15478 24.2587 10.5975 22.9839 13.4602C21.0548 17.7924 20.6249 23.6651 21.8936 28.3498C22.3747 30.1261 23.7674 33.1273 24.8986 34.825C26.011 36.4947 28.6133 39.2362 30.3377 40.5544C34.4378 43.6893 39.7851 45.2469 45.3299 44.9214C51.1386 44.5806 56.0451 42.4253 60.0235 38.4669C64.3233 34.1888 66.5093 29.4099 66.7744 23.7078C67.0928 16.8644 64.8904 11.1936 60.0741 6.45604C57.3717 3.7975 55.0661 2.35269 51.6899 1.20236C48.9052 0.253242 44 -0.257379 41.3982 0.130812ZM47.9643 7.09621C50.7833 7.81241 52.7878 8.98295 55.0434 11.2308C58.3345 14.5102 59.6722 17.7634 59.6654 22.4718C59.6597 26.5885 58.7117 29.3265 56.2088 32.4545C53.8944 35.3471 50.5174 37.4831 47.2573 38.1168C45.1277 38.5305 41.1658 38.3102 39.3167 37.6749C34.7881 36.1189 30.3414 31.6892 28.8899 27.2877C28.407 25.8231 28.3312 25.1572 28.3312 22.3776C28.3312 18.6751 28.7257 17.0877 30.3104 14.4165C32.7397 10.3214 36.3381 7.76716 41.0513 6.79232C42.448 6.50335 46.2966 6.67264 47.9643 7.09621ZM99.506 7.62268L96.6729 7.84273L96.6768 17.4072C96.6812 27.7223 96.7853 28.8845 97.9243 31.3559C98.633 32.8933 100.468 34.8551 101.932 35.6416C104.283 36.9043 106.203 37.3081 109.856 37.3081C112.684 37.3081 113.467 37.2274 114.856 36.7938C119.262 35.4174 122.125 31.9646 122.789 27.2277C122.932 26.2053 123.038 21.6814 123.038 16.6186V7.79174H119.569H116.1V17.5278V27.2638L115.458 28.4846C114.195 30.8859 111.091 32.2528 108.068 31.7386C106.139 31.4105 104.976 30.6399 104.275 29.2263L103.727 28.1201L103.656 17.7262L103.585 7.33234L102.962 7.36748C102.619 7.38678 101.064 7.50163 99.506 7.62268ZM80.3326 8.00375C77.685 8.71582 75.6223 9.90428 73.3433 12.0301C68.6072 16.4486 67.4145 23.064 70.3085 28.8646C72.0329 32.3208 75.8498 35.5816 79.5586 36.7671C81.4518 37.3722 85.3615 37.5862 87.5676 37.2054C89.2448 36.916 94.7418 35.2208 94.9009 34.944C95.0126 34.7494 94.2029 29.3802 94.0371 29.2155C93.9735 29.1526 93.1617 29.4128 92.2329 29.7941C89.8628 30.7672 87.6927 31.3974 86.0965 31.5768C81.1176 32.1364 76.1634 28.2205 75.7069 23.3649C75.2534 18.5423 78.6802 14.1397 83.5418 13.2988C85.4517 12.9685 87.8292 13.3812 90.9819 14.5906C92.1145 15.025 93.0814 15.3401 93.1309 15.291C93.3337 15.0895 94.3118 9.50276 94.1684 9.36311C94.0831 9.27996 92.7123 8.88074 91.1223 8.47578C87.3058 7.50392 82.9065 7.31166 80.3326 8.00375ZM132.84 8.00099C129.489 8.90417 126.619 10.7599 125.407 12.807C124.83 13.7825 124.773 14.085 124.773 16.1758C124.773 18.1505 124.853 18.6338 125.341 19.6212C126.484 21.9304 129.216 23.9414 132.011 24.5311C132.686 24.6732 134.313 24.7895 135.628 24.7895C137.789 24.7895 138.137 24.8506 139.259 25.4271C141.587 26.6238 141.866 28.7109 139.918 30.3668C138.772 31.3412 137.657 31.6804 135.6 31.6804C133.432 31.6804 129.783 30.5515 128.091 29.3573C127.753 29.1191 127.377 28.9241 127.255 28.9241C127.133 28.9241 126.268 30.0725 125.334 31.476C123.694 33.9402 123.651 34.0397 124.088 34.3658C124.957 35.0134 127.099 35.9953 129.051 36.6408C130.845 37.2336 131.311 37.2911 134.371 37.2938C139.577 37.2989 143.171 36.222 145.622 33.9235C148.956 30.7959 148.758 25.2078 145.195 21.8978C143.112 19.9633 140.295 19.0525 136.381 19.0488C135.388 19.0477 134.112 18.931 133.545 18.7893C132.393 18.501 131.364 17.4928 131.364 16.6515C131.364 15.7533 132.337 14.6028 133.677 13.9169C134.853 13.3146 135.097 13.274 136.915 13.3743C138.327 13.4524 139.548 13.7069 141.251 14.2789C142.918 14.8387 143.68 14.9995 143.818 14.8212C144.097 14.4599 146.397 10.3497 146.397 10.2109C146.397 10.1473 145.787 9.78966 145.042 9.41617C141.761 7.77083 136.121 7.11688 132.84 8.00099ZM0 22.4925V37.1932H3.46912H6.93825V30.9913V24.7895H13.1827H19.4271V22.0331V19.2767H13.1827H6.93825V16.4055V13.5342H14.1233C20.855 13.5342 21.3013 13.5089 21.1959 13.1322C21.1339 12.911 21.0196 12.0067 20.9417 11.1224C20.864 10.238 20.7423 9.12698 20.6716 8.65311L20.5428 7.79174H10.2714H0V22.4925ZM40.4264 11.4511C38.4851 12.0676 37.2491 12.8708 35.6818 14.5348C33.9986 16.3218 33.1866 17.89 32.6831 20.3253C31.9432 23.904 32.9613 27.3318 35.5939 30.1272C38.1839 32.8769 40.6528 34.0004 44.1057 34.0004C46.2247 34.0004 47.4643 33.7319 49.0645 32.9266C50.4508 32.229 52.7184 30.1451 53.6347 28.727C57.8011 22.2784 54.3831 13.2551 47.0563 11.3597C45.2068 10.8812 42.0853 10.9241 40.4264 11.4511Z" fill="white"/>
</svg>
