<svg width="159" height="54" viewBox="0 0 159 54" fill="none" xmlns="http://www.w3.org/2000/svg">
<path fill-rule="evenodd" clip-rule="evenodd" d="M20.8213 0.391418C19.7163 0.611075 17.0904 1.63334 14.986 2.66354C3.49338 8.2888 -2.3424 21.2495 0.879874 33.9905C3.18532 43.1065 10.947 50.9162 20.0452 53.2751C23.5105 54.1733 30.353 54.1849 33.6684 53.2979C42.5711 50.9162 49.5824 44.1885 52.6336 35.1C54.2648 30.2428 54.1845 23.4335 52.4371 18.3109C51.737 16.2589 50.3853 13.4258 49.433 12.015C47.3521 8.93098 47.2175 8.92072 39.9949 11.2912C28.1739 15.1704 22.8298 19.7585 21.2521 27.3803C19.8685 34.0647 22.8971 38.8519 27.7658 37.6762C31.5848 36.7537 31.8237 36.5205 31.8237 33.7126C31.8237 32.2953 31.7462 31.1359 31.6512 31.1359C31.5562 31.1359 30.6223 31.4414 29.5759 31.8149L27.6731 32.4935L27.6749 28.4338L27.6768 24.3736L33.555 22.3165C36.7879 21.1851 39.6965 20.1643 40.018 20.0481C40.4824 19.8807 40.5774 22.1328 40.4791 30.9554L40.3555 42.0735L37.4695 43.8378C30.8631 47.8765 23.4099 49.0573 18.6542 46.8178C15.7779 45.4635 13.2321 42.5324 11.9519 39.1009C10.6126 35.5122 10.8644 26.8286 12.4394 22.275C15.5685 13.229 21.6436 7.13595 32.0174 2.63882L35.67 1.05552L33.4009 0.517336C30.7473 -0.112253 23.7079 -0.182674 20.8213 0.391418ZM134.168 16.632C131.905 17.0984 129.402 18.7414 128.751 20.1866C128.453 20.8465 128.21 22.2484 128.21 23.3019C128.21 24.9249 128.488 25.4845 130.025 26.9634C131.031 27.9301 132.882 29.0587 134.175 29.4934C136.243 30.1878 137.895 31.585 137.895 32.639C137.895 32.8381 137.48 33.4211 136.973 33.9341C135.867 35.0524 133.311 35.1643 130.642 34.212L128.807 33.5573L128.335 35.6442C127.889 37.6151 127.923 37.755 128.953 38.1509C129.554 38.3818 131.344 38.6849 132.932 38.8244C138.799 39.3392 142.507 36.7206 142.507 32.0626C142.507 29.0802 141.335 27.7021 137.016 25.6062C133.815 24.0533 133.514 23.7879 133.514 22.5194C133.514 20.6334 135.164 20.0397 138.475 20.7337C139.805 21.0126 140.935 21.2033 140.987 21.1576C141.039 21.1114 141.218 20.2118 141.384 19.1579C141.674 17.3278 141.628 17.2299 140.368 16.9762C137.525 16.404 135.752 16.3056 134.168 16.632ZM150.271 16.6474C148.052 17.0909 146.361 18.2498 145.254 20.085C143.034 23.7664 144.963 27.315 150.347 29.4561C153.956 30.8915 154.94 32.4958 153.193 34.095C152.137 35.0613 149.035 35.1042 146.853 34.1826C145.009 33.4034 144.775 33.6356 144.651 36.3694C144.585 37.8347 144.669 37.9084 147.106 38.5161C153.677 40.1549 159.573 36.6889 158.956 31.55C158.628 28.8185 157.454 27.5514 153.531 25.6944C149.577 23.8229 148.809 22.8039 150.189 21.2607C150.889 20.4786 151.44 20.3517 153.344 20.5336C154.613 20.6549 155.988 20.8992 156.401 21.076C156.948 21.3106 157.228 21.0867 157.436 20.2477C157.594 19.6149 157.848 18.7656 158.001 18.3608C158.189 17.8651 157.927 17.4906 157.197 17.215C155.454 16.5574 152.098 16.2823 150.271 16.6474ZM72.0045 18.1221C69.6507 19.3117 68.9082 19.9884 67.7843 21.9695C66.6041 24.0509 66.4206 24.8493 66.4164 27.9147C66.4113 32.2514 67.6016 34.885 70.5006 36.9496C72.2665 38.2074 72.8489 38.3496 76.9216 38.5147C79.4535 38.6178 82.2529 38.4648 83.3606 38.1631L85.3207 37.6291V31.8173V26.0059H81.1437H76.9664L77.1084 27.9665C77.2454 29.8637 77.3016 29.9276 78.8641 29.9485L80.4783 29.97V32.3018V34.6336L78.5275 34.7768C76.0546 34.9577 73.5024 33.7625 72.3287 31.8728C71.6176 30.7283 71.4682 29.7863 71.5941 27.2357C71.7417 24.2426 71.8597 23.9353 73.4185 22.4909C75.3735 20.6791 78.0414 20.1046 81.17 20.8204C83.5128 21.3567 83.7148 21.2425 84.1553 19.1294C84.4347 17.7877 84.3323 17.5629 83.2513 17.1474C82.5808 16.8895 80.4188 16.6787 78.4468 16.6787C75.3605 16.6787 74.4626 16.8797 72.0045 18.1221ZM89.3177 16.9897C89.1485 17.1604 89.0101 22.0922 89.0101 27.9492V38.5977H91.316H93.6219V34.4004V30.2032H95.2033C97.1633 30.2032 98.0654 31.0785 98.7087 33.6053C100.03 38.7931 99.8732 38.5977 102.7 38.5977C104.882 38.5977 105.208 38.4862 104.958 37.8273C104.797 37.4034 104.329 35.7039 103.919 34.0511C103.508 32.3983 102.683 30.4578 102.085 29.7396L100.998 28.4333L102.614 26.8001C104.018 25.3796 104.229 24.8699 104.229 22.892C104.229 18.3734 101.551 16.7048 94.2754 16.6889C91.7177 16.6833 89.4865 16.8186 89.3177 16.9897ZM112.991 16.8358C112.991 16.945 111.539 21.8059 109.763 27.6382C107.988 33.4705 106.535 38.3221 106.535 38.42C106.535 38.5175 107.649 38.5977 109.011 38.5977H111.486L112.263 35.7995L113.039 33.0014H116.183H119.326L120.103 35.7995L120.879 38.5977H123.561H126.242L122.911 27.7548L119.581 16.9118L116.286 16.7747C114.474 16.6997 112.991 16.7272 112.991 16.8358ZM98.6949 21.3423C100.734 23.4041 98.8153 26.4723 95.4874 26.4723H93.6219V23.4409V20.4096H95.6972C97.1578 20.4096 98.046 20.6861 98.6949 21.3423ZM117.111 24.2636C117.585 25.9392 118.111 27.751 118.28 28.2902C118.566 29.2 118.416 29.2705 116.197 29.2705C113.938 29.2705 113.823 29.2126 114.101 28.2211C114.263 27.6442 114.742 25.7597 115.164 24.0341C115.587 22.3081 116.003 20.9683 116.091 21.0564C116.178 21.1446 116.637 22.5879 117.111 24.2636Z" fill="white"/>
</svg>
