<svg width="130" height="51" viewBox="0 0 130 51" fill="none" xmlns="http://www.w3.org/2000/svg">
<path fill-rule="evenodd" clip-rule="evenodd" d="M26.0351 0.104434C24.9841 0.288223 23.9534 0.775947 23.0252 1.52865C22.5814 1.88852 20.7691 4.01779 18.687 6.62536L15.1112 11.1041L15.0732 6.24094C15.0522 3.56616 14.9889 1.37783 14.9324 1.37783C14.8758 1.37783 11.4929 2.83729 7.41477 4.62123L0 7.86464V21.3995C0 29.9372 0.0510456 34.9169 0.138098 34.8868C0.214016 34.8607 3.59778 33.2984 7.65756 31.4151L15.0389 27.991V23.5313C15.0389 21.0786 15.0878 19.0762 15.1474 19.0814C15.207 19.0869 15.9333 19.8413 16.7612 20.7581C20.6762 25.0932 25.5127 30.3445 25.5903 30.3445C25.7049 30.3445 50.2386 8.81883 50.2905 8.67271C50.3401 8.53344 48.893 7.52503 48.0116 7.08454C41.2084 3.6846 32.9526 7.51305 30.9313 15.005C30.4719 16.7082 30.4878 19.1277 30.9704 20.9096L31.3327 22.2479L28.6589 24.5483C27.1882 25.8134 25.9135 26.8485 25.8262 26.8485C25.6033 26.8485 23.3735 24.4827 21.2328 21.9748C19.5798 20.0385 15.8223 15.395 15.5641 14.9696C15.4952 14.856 16.6964 13.2432 18.885 10.5107L22.3137 6.22981L22.5603 6.94813C23.0809 8.46595 24.4993 9.95666 25.8801 10.4374C27.6533 11.0547 30.087 10.2515 31.3964 8.61692C32.6057 7.10723 32.8991 4.4734 32.049 2.75866C31.0315 0.706598 28.6367 -0.350328 26.0351 0.104434ZM117.202 5.86338C115.467 6.20384 113.777 6.89519 112.358 7.84509C110.837 8.86421 108.962 10.9398 108.179 12.4722C108.009 12.8058 107.822 13.0782 107.764 13.0778C107.706 13.0774 106.683 11.7289 105.491 10.0812L103.323 7.08554H96.2635C90.6548 7.08554 89.2266 7.12221 89.3123 7.26391C89.3717 7.36208 91.6915 10.8054 94.4672 14.916L99.5139 22.3895L98.8197 23.0851C98.4379 23.4677 98.088 23.7806 98.0423 23.7806C97.9966 23.7806 97.9439 23.5718 97.9253 23.3169C97.8722 22.5891 97.2306 21.442 96.5102 20.7868C95.017 19.4286 93.1325 19.0642 91.4956 19.8167L90.6608 20.2006L87.0676 14.8916C85.0916 11.9716 83.082 9.01774 82.6021 8.32725L81.7294 7.0717L76.909 12.3583C74.2578 15.2658 72.046 17.6448 71.994 17.6448C71.9419 17.6448 70.3886 15.3004 68.5418 12.435C66.6952 9.56954 65.1427 7.20183 65.0921 7.17344C65.0415 7.14504 62.742 9.77744 59.9821 13.0231C57.2223 16.269 54.9384 18.8774 54.9069 18.8197C54.8753 18.7621 54.8367 18.3297 54.8211 17.8589C54.7421 15.4709 53.9342 13.0009 52.5948 11.0515C52.3392 10.6797 52.0865 10.3897 52.0333 10.4071C51.8834 10.4561 33.9158 26.2322 33.8651 26.3594C33.7698 26.5982 35.8532 28.1136 37.0912 28.7059C38.5527 29.4051 39.5323 29.6808 41.4294 29.9271C44.6575 30.3462 47.8569 29.5039 50.3292 27.5842C50.7703 27.2416 52.7133 25.1492 54.6471 22.9342L58.1632 18.9068L58.8384 19.9524C59.2097 20.5275 60.7467 22.9083 62.254 25.2432C63.7612 27.5779 65.0377 29.4883 65.0907 29.4883C65.1436 29.4883 67.1621 27.3212 69.5762 24.6724C71.9904 22.0238 74.163 19.6415 74.4044 19.3785L74.8434 18.9007L78.2928 24.2496L81.7421 29.5988L84.9215 26.4043C86.6702 24.6473 88.1484 23.2098 88.2065 23.2098C88.2645 23.2098 88.35 23.6753 88.3965 24.2444C88.8098 29.3011 92.9216 31.1641 97.1435 28.2072C97.6193 27.8742 99.8417 25.6353 102.38 22.9319C104.806 20.3487 106.83 18.2307 106.879 18.2253C106.927 18.22 107.01 18.6783 107.063 19.244C107.538 24.2883 111.002 28.297 116.055 29.6514C117.561 30.0551 120.502 30.0941 121.885 29.7286C124.124 29.1366 125.622 28.3215 127.275 26.796C128.31 25.8405 130 23.6286 130 23.2297C130 23.1199 129.572 23.0671 128.683 23.0671H127.366L126.286 24.0626C124.913 25.3284 123.383 26.269 121.786 26.8302C120.639 27.2331 120.376 27.2713 118.793 27.2649C116.82 27.257 115.912 27.0117 114.544 26.1169C113.202 25.2386 111.341 23.0713 111.531 22.6081C111.635 22.3542 120.189 13.3382 120.259 13.4078C120.291 13.4388 120.25 13.9265 120.169 14.4916C119.917 16.2467 120.256 17.3517 121.323 18.2535C122.418 19.178 124.594 19.5418 125.871 19.0135C128.916 17.754 129.839 13.2367 127.713 10.0005C126.545 8.22209 124.152 6.59953 121.83 6.01121C120.581 5.69486 118.415 5.62565 117.202 5.86338ZM47.9457 18.967C48.7044 19.3483 49.5712 20.1829 49.9408 20.8881C50.4808 21.9186 50.4795 23.6089 49.9376 24.7378C49.5803 25.4821 48.6492 26.3673 47.7882 26.781C47.217 27.0555 46.8456 27.1256 45.9844 27.121C44.2149 27.1119 42.8702 26.2947 42.0904 24.7546C40.8705 22.3455 42.1436 19.494 44.8267 18.6258C45.5364 18.3962 47.1641 18.5742 47.9457 18.967ZM94.4752 40.8825C93.1516 41.3338 92.1236 42.3672 91.581 43.7917C91.2332 44.7047 91.2435 46.9076 91.6 47.8585C92.3071 49.7446 93.7309 50.7808 95.7394 50.871C99.0017 51.0175 100.977 49.0601 100.974 45.684C100.973 43.9076 100.604 42.963 99.4863 41.8771C98.8594 41.2679 98.4626 41.0112 97.8874 40.8425C96.8814 40.5479 95.4061 40.565 94.4752 40.8825ZM104.043 40.727C103.646 40.7475 103.174 40.7969 102.995 40.8367L102.67 40.9092V45.8095V50.7097L103.429 50.7998C106.18 51.1258 108.817 50.5656 109.593 49.4899C110.584 48.1164 110.193 46.3532 108.74 45.6437L108.153 45.3575L108.68 45.0363C109.378 44.6106 109.754 43.9732 109.755 43.2154C109.756 42.1485 109.052 41.2907 107.875 40.924C107.359 40.7632 105.347 40.6597 104.043 40.727ZM54.3251 44.15C55.2461 46.014 56.0299 47.6764 56.0669 47.8443C56.2191 48.533 55.2536 49.2773 54.3736 49.1498C54.0358 49.1009 53.9377 49.1408 53.9377 49.3275C53.9377 49.4599 53.8975 49.8576 53.8483 50.2112L53.7591 50.8541L54.2916 50.9528C55.2423 51.1288 56.301 50.8061 57.1008 50.0965C58.0122 49.288 58.745 47.8436 60.2804 43.829L61.4265 40.8324L60.3349 40.7903C59.7345 40.7672 59.1971 40.7993 59.1409 40.8616C59.0846 40.924 58.6881 42.1469 58.2598 43.5792C57.8315 45.0116 57.4366 46.1834 57.3821 46.1834C57.3277 46.1834 57.2405 46.039 57.1883 45.8623C57.1361 45.6857 56.66 44.4656 56.1304 43.1512L55.1673 40.7611H53.9091H52.6507L54.3251 44.15ZM62.4694 45.7553V50.7496H63.6263H64.7831V46.6072V42.4648L66.6268 42.5048L68.4705 42.5447L68.5088 46.6471L68.5473 50.7496H69.6295H70.7119V45.7553V40.7611H66.5907H62.4694V45.7553ZM75.1232 40.9394C74.9834 41.3398 72.2947 50.0885 72.2139 50.4061C72.1272 50.7473 72.1342 50.7496 73.272 50.7496H74.4174L74.7542 49.4608L75.0908 48.1718L76.6187 48.2122L78.1466 48.2524L78.5204 49.4653L78.8942 50.6782L80.0989 50.7199C81.034 50.7523 81.2895 50.7203 81.2403 50.5772C81.2055 50.4759 80.4998 48.2257 79.6721 45.5769L78.167 40.7611H76.6763C75.6134 40.7611 75.1678 40.8123 75.1232 40.9394ZM82.8587 45.7553V50.7496H83.9433H85.0278V48.6805V46.6115H85.6113C86.7223 46.6115 87.0787 47.0452 87.8389 49.3226L88.2914 50.6782L89.4973 50.7199C90.6065 50.7583 90.695 50.7411 90.6023 50.5058C90.5468 50.3653 90.2501 49.5325 89.9429 48.6553C89.6358 47.7781 89.285 46.8707 89.1635 46.639C88.8906 46.1185 88.1627 45.4996 87.6832 45.3809C87.4604 45.3258 87.3528 45.2188 87.3993 45.0988C87.4407 44.9925 88.1929 44.0069 89.071 42.9087C89.949 41.8104 90.6674 40.8779 90.6674 40.8364C90.6674 40.795 90.0816 40.7611 89.3655 40.7611H88.0635L86.6785 42.8301C85.9167 43.9681 85.2337 44.8991 85.1607 44.8991C85.0861 44.8991 85.0278 43.9921 85.0278 42.8301V40.7611H83.9433H82.8587V45.7553ZM111.78 45.7553V50.7496H112.933H114.086L114.126 48.6448L114.166 46.5401L114.671 46.5902C115.818 46.7039 116.097 47.0491 116.88 49.3226L117.347 50.6782L118.558 50.7199C119.673 50.7584 119.761 50.7414 119.666 50.5058C119.609 50.3653 119.284 49.4638 118.942 48.5024C118.246 46.5407 117.774 45.8207 116.964 45.4853C116.659 45.359 116.409 45.2045 116.409 45.1417C116.408 45.0791 117.112 44.148 117.973 43.0727C118.834 41.9975 119.586 41.0376 119.644 40.9394C119.726 40.8022 119.448 40.7611 118.441 40.7611H117.131L115.734 42.8301C114.966 43.9681 114.282 44.8991 114.215 44.8991C114.148 44.8991 114.093 43.9681 114.093 42.8301V40.7611H112.937H111.78V45.7553ZM123.592 40.8632C123.554 40.9247 122.928 42.9014 122.2 45.2559C121.473 47.6103 120.786 49.8121 120.674 50.1488L120.47 50.7608L121.641 50.7196L122.813 50.6782L122.997 50.0361C123.099 49.6829 123.254 49.121 123.343 48.7875L123.504 48.1811H125.014H126.525L126.914 49.4653L127.304 50.7496H128.507C129.169 50.7496 129.708 50.7334 129.706 50.7139C129.703 50.6943 129.002 48.4629 128.147 45.7553L126.593 40.8324L125.127 40.7919C124.32 40.7696 123.629 40.8017 123.592 40.8632ZM107.089 42.5376C107.82 43.0102 107.653 44.129 106.792 44.5324C106.529 44.6556 105.982 44.7565 105.576 44.7565H104.839V43.554C104.839 42.5279 104.876 42.3424 105.092 42.289C105.577 42.1692 106.744 42.3144 107.089 42.5376ZM97.177 42.5955C97.4546 42.7415 97.8754 43.1687 98.1146 43.5474C98.5254 44.1982 98.5484 44.3148 98.5484 45.7442C98.5484 47.0893 98.5091 47.3228 98.1869 47.8901C97.6975 48.752 97.0257 49.1799 96.1624 49.1799C94.1856 49.1799 93.081 46.7639 93.8789 44.1857C94.3647 42.6162 95.8518 41.8992 97.177 42.5955ZM77.1895 44.3685C77.4598 45.3275 77.6908 46.2084 77.7031 46.3261C77.7208 46.4966 77.4978 46.5485 76.6046 46.5818C75.918 46.6073 75.4839 46.5677 75.4839 46.4792C75.4839 46.3998 75.6737 45.6427 75.906 44.7966C76.1381 43.9505 76.369 43.074 76.419 42.8489C76.4692 42.6239 76.5525 42.4814 76.6041 42.5323C76.6558 42.5834 76.9192 43.4096 77.1895 44.3685ZM125.703 44.7175C125.976 45.677 126.165 46.4957 126.123 46.5368C126.081 46.5778 125.563 46.6115 124.971 46.6115H123.894L123.963 46.2191C124.039 45.788 124.769 42.9581 124.892 42.6161C124.997 42.3248 125.094 42.5747 125.703 44.7175ZM106.945 46.535C107.279 46.6724 107.52 46.9043 107.651 47.2128C108.088 48.2457 107.437 49.0886 106.072 49.257C104.842 49.4087 104.839 49.405 104.839 47.7574V46.3261H105.639C106.079 46.3261 106.667 46.4201 106.945 46.535Z" fill="white"/>
</svg>
