<svg width="127" height="52" viewBox="0 0 127 52" fill="none" xmlns="http://www.w3.org/2000/svg">
<path fill-rule="evenodd" clip-rule="evenodd" d="M6.34895 35.9942C5.8785 38.8397 5.14869 43.1355 4.93766 44.5307C4.72657 45.9259 4.51807 46.6369 5.04964 47.2507C5.58128 47.8645 6.47034 47.9812 7.40183 47.6926C8.33325 47.4038 8.53037 46.3665 8.73682 45.4489C8.94335 44.5312 9.84253 39.1992 10.3813 35.9941H14.0103C13.5473 38.7806 12.9927 42.1039 12.6214 44.3531C12.2501 46.6024 12.0865 47.8989 10.9638 49.2849C9.48672 50.9022 7.90881 51.1647 5.76652 51.1647C3.9707 51.1647 2.61631 50.9404 1.17412 49.7275C-0.14753 48.4191 -0.149568 47.6468 0.188256 45.26C0.52615 42.8732 1.20404 39.0829 1.7118 35.9941H6.34895V35.9942ZM16.3797 35.9942H23.3692C24.7278 36.0491 25.8104 36.2122 26.9982 36.9454C29.2555 38.6097 28.5568 42.3628 26.5951 43.977C24.5704 45.7834 21.9259 45.5475 19.4039 45.5475C19.0978 47.3461 18.7914 49.1444 18.4854 50.943H13.8705C14.7069 45.9602 15.5432 40.9771 16.3796 35.9943L16.3797 35.9942ZM20.457 39.2894C20.2926 40.2623 20.1283 41.235 19.964 42.2081H21.7339C22.3001 42.2081 22.7187 42.0969 23.1898 41.7662C23.6667 41.4491 23.8858 40.5707 23.7053 40.0416C23.4891 39.4046 22.813 39.2894 22.2267 39.2894H20.457H20.457ZM33.1701 35.9942H38.0841L40.395 50.9429H35.6825L35.3467 48.0021H31.1735L29.9162 50.9429H26.0579L33.1701 35.9942ZM32.609 44.7516H34.9872L34.5159 40.3947L32.609 44.7516ZM57.5098 35.9942L51.9988 42.9605L55.8299 50.9429H50.4309L48.3475 46.233L44.8976 50.9429H40.5292L46.6448 43.2034L43.1726 35.9942H48.5489L50.2292 40.0416L53.3207 35.9942H57.5098Z" fill="white"/>
<path fill-rule="evenodd" clip-rule="evenodd" d="M62.0791 43.269L61.5396 46.6838H55.896L56.4579 43.269H62.0791ZM80.1611 35.9958H84.5583L88.1979 44.0666L89.4265 35.9958H93.2178L90.7276 50.941H86.8915L82.971 42.121L81.4621 50.941H77.6708L80.1611 35.9958ZM100.431 35.9958L97.9141 50.941H93.2628L95.7797 35.9958H100.431ZM101.507 35.9958H112.394L111.812 39.4888H108.653L106.771 50.941H102.156L104.016 39.4888H100.924L101.507 35.9958ZM127 35.9958L120.852 44.6401L119.798 50.941H115.131L116.185 44.6401L112.573 35.9958H117.689L119.529 40.9264L122.962 35.9958H127Z" fill="white"/>
<path d="M63.3891 30.2054C71.6822 30.2054 78.4051 23.5505 78.4051 15.3412C78.4051 7.13197 71.6822 0.477051 63.3891 0.477051C55.0959 0.477051 48.373 7.13197 48.373 15.3412C48.373 23.5505 55.0959 30.2054 63.3891 30.2054Z" fill="white" stroke="white" stroke-width="0.755966" stroke-miterlimit="22.926"/>
<path fill-rule="evenodd" clip-rule="evenodd" d="M57.5117 2.37915C59.7472 2.41434 61.9187 2.52066 64.1428 2.80131C65.7621 2.97676 67.3616 3.29691 68.8696 3.84702C69.477 4.06711 69.937 4.25562 70.4602 4.55936C70.8364 4.76707 71.3866 5.18193 71.2891 5.67071C71.2342 5.95011 70.8816 6.26387 70.6617 6.42735C69.4368 7.24476 67.873 7.57917 66.4502 7.91761C61.0168 9.14314 56.1019 8.9266 50.6568 8.22886C49.7927 8.11099 48.9785 8.00112 48.1254 7.8067C47.7731 7.71873 47.4276 7.63828 47.0725 7.56179C47.1472 7.58397 47.2219 7.60629 47.2965 7.6284C47.5055 7.6953 47.7146 7.76198 47.9236 7.82881C49.2463 8.24645 50.5397 8.51883 51.8887 8.8072C52.1948 8.86652 52.5011 8.92611 52.8072 8.9855C57.7324 9.78302 61.7114 9.69902 66.6292 8.7408C68.3329 8.34429 69.7994 7.95752 71.289 7.00562C71.6149 6.74006 71.8514 6.45795 72.0505 6.09392C72.1081 5.92167 72.1625 5.74143 72.1625 5.55987C72.1625 3.59488 67.8165 2.91522 66.3829 2.71251C64.7589 2.48193 63.1158 2.40829 61.4769 2.37915H57.5117H57.5117ZM65.0069 12.5594C66.4997 12.7706 68.9961 13.2075 69.9694 14.3395C70.3327 14.8475 70.2214 15.381 69.8351 15.8306C69.7904 15.8824 69.7454 15.9342 69.7007 15.986C69.6413 16.0381 69.5818 16.0901 69.5225 16.1422C69.3586 16.2689 69.2573 16.3322 69.0751 16.4313C68.9931 16.4758 68.9107 16.5206 68.8288 16.5651C68.732 16.6096 68.6352 16.6538 68.5384 16.6983C66.3599 17.603 62.789 18.0166 60.3431 18.1021C57.7563 18.2359 55.3273 18.0885 52.776 17.7036C51.9792 17.5764 51.1826 17.4493 50.3866 17.318C50.4455 17.3301 50.5042 17.3425 50.5631 17.3546C53.7392 18.0608 57.1031 18.434 60.3574 18.434C61.1745 18.4191 61.934 18.3845 62.7489 18.3231C64.1954 18.2069 65.4665 18.0249 66.8844 17.7219C67.3221 17.6301 67.715 17.5051 68.1361 17.3661C68.3942 17.2749 68.603 17.1921 68.8512 17.077C68.9632 17.0249 69.0752 16.9729 69.1872 16.9208C69.284 16.8687 69.3807 16.8167 69.4775 16.7647C69.5742 16.7056 69.671 16.6465 69.7678 16.5873C69.8501 16.5278 69.9321 16.4684 70.0144 16.4088C70.0812 16.3495 70.1483 16.2899 70.215 16.2305C70.2823 16.1637 70.3494 16.0971 70.4167 16.0301C70.4686 15.971 70.5206 15.912 70.5724 15.8529C70.6098 15.7787 70.6471 15.7044 70.6844 15.6302C70.7143 15.5633 70.7441 15.4966 70.7741 15.4298C70.7964 15.3556 70.819 15.2812 70.8414 15.207C70.8485 15.1255 70.8556 15.0438 70.8627 14.9623C70.8556 14.8954 70.8485 14.8285 70.8414 14.7616C70.819 14.6878 70.7964 14.6138 70.7741 14.5399C70.7441 14.4731 70.7143 14.4064 70.6844 14.3395C70.6397 14.2802 70.5948 14.2206 70.55 14.1612C68.5294 11.855 59.3727 12.1032 58.3008 12.1158C60.5103 12.2355 62.7548 12.2717 65.0069 12.5593V12.5594ZM67.3651 24.7762C68.2887 25.0307 69.8671 25.7836 68.8909 26.7498C68.8383 26.794 68.786 26.8385 68.7334 26.8828C67.8332 27.5184 66.352 27.8681 65.2779 28.0804C62.2372 28.6961 58.7405 28.6169 55.1819 28.4794C57.82 28.7741 60.4066 28.8993 63.0577 28.7011C64.6607 28.5777 66.6868 28.3059 68.15 27.6589C69.3574 27.1829 70.3683 25.9569 68.8687 25.0422C68.3799 24.7535 68.0012 24.6422 67.4546 24.4878C66.3469 24.2142 65.2267 24.0189 64.089 23.9113C62.1957 23.6986 60.2405 23.6478 58.3357 23.6219C61.0994 23.8544 64.74 23.9101 67.3652 24.7762H67.3651Z" fill="#1B1B1B"/>
<path fill-rule="evenodd" clip-rule="evenodd" d="M68.9327 30.6301H69.1093L72.1587 5.54956L71.3192 5.48315L68.9327 30.6301Z" fill="#1B1B1B"/>
<path fill-rule="evenodd" clip-rule="evenodd" d="M69.8529 35.9942C69.3825 38.8397 68.6527 43.1355 68.4416 44.5307C68.2305 45.9259 68.022 46.6369 68.5536 47.2507C69.0853 47.8645 69.9743 47.9812 70.9057 47.6926C71.8372 47.4038 72.0343 46.3665 72.2408 45.4489C72.4473 44.5312 73.3465 39.1992 73.8853 35.9941H77.5143C77.0512 38.7806 76.4967 42.1039 76.1254 44.3531C75.754 46.6024 75.5905 47.8989 74.4678 49.2849C72.9906 50.9022 71.4128 51.1647 69.2704 51.1647C67.4747 51.1647 66.1203 50.9404 64.678 49.7275C63.3564 48.4191 63.3544 47.6468 63.6922 45.26C64.0301 42.8732 64.7079 39.0829 65.2157 35.9941H69.8529V35.9942Z" fill="white"/>
</svg>
